<svg width="93" height="93" viewBox="0 0 93 93" fill="none" xmlns="http://www.w3.org/2000/svg">
<circle cx="46.5" cy="46.5" r="46.5" fill="#95C53D"/>
<path d="M29 20.4218C29 19.6213 29.6489 18.9724 30.4494 18.9724L57.5612 18.9724L68.4304 32.2387L68.4304 45.7904L68.4304 71.1589C68.4304 71.9594 67.7815 72.6083 66.981 72.6083L30.4494 72.6083C29.6489 72.6083 29 71.9594 29 71.1589L29 20.4218Z" stroke="white" stroke-width="2"/>
<path d="M67.3662 31.887L58.113 31.887C57.7717 31.887 57.4963 31.608 57.5007 31.2667L57.6416 20.4161L67.3662 31.887Z" fill="white" stroke="white" stroke-width="1.22471"/>
<rect x="35.5757" y="34.5625" width="25.5881" height="2" rx="1" fill="white"/>
<rect x="35.5757" y="40.0127" width="25.5881" height="2" rx="1" fill="white"/>
<rect x="45" y="49" width="27" height="27" fill="#95C53D"/>
<path d="M58.9989 59.2856C57.1086 59.2856 55.5703 60.8235 55.5703 62.7142C55.5703 64.6049 57.1086 66.1428 58.9989 66.1428C60.8892 66.1428 62.4275 64.6049 62.4275 62.7142C62.4275 60.8235 60.8892 59.2856 58.9989 59.2856Z" fill="white"/>
<path d="M70.0313 62.6981C69.582 63.2156 68.4285 64.4682 66.7964 65.6998C64.7275 67.2611 61.9881 68.7143 59 68.7143C56.012 68.7143 53.2726 67.2611 51.2035 65.6998C49.5716 64.4683 48.418 63.2158 47.9686 62.6982C48.4083 62.1224 49.5738 60.6807 51.2309 59.2646C53.3098 57.488 56.0393 55.8571 59 55.8571C61.9606 55.8571 64.6902 57.488 66.7691 59.2646C68.4265 60.6809 69.5921 62.1227 70.0313 62.6981ZM70.9021 62.995C71.0265 62.8412 71.033 62.6157 70.9178 62.4542H47.0821C46.9669 62.6153 46.9737 62.8412 47.0977 62.995C47.3145 63.2637 52.4856 69.5714 59 69.5714C65.5147 69.5714 70.6854 63.2637 70.9021 62.995Z" stroke="white" stroke-width="1.71429" stroke-linejoin="round"/>
</svg>
