<svg width="93" height="93" viewBox="0 0 93 93" fill="none" xmlns="http://www.w3.org/2000/svg">
<circle cx="46.5" cy="46.5" r="46.5" fill="#D83D89"/>
<rect x="62" y="38" width="11" height="20" fill="#D83D89"/>
<rect x="34" y="36" width="23" height="3" rx="1.5" fill="white"/>
<rect x="34" y="43" width="23" height="3" rx="1.5" fill="white"/>
<rect x="34" y="50" width="11" height="3" rx="1.5" fill="white"/>
<path d="M60.8381 47.915L66.015 53.0993L58.4177 60.7219L53.2437 55.5376L60.8381 47.915ZM70.481 45.9821L68.1723 43.6701C67.2801 42.7766 65.8313 42.7766 64.936 43.6701L62.7245 45.8848L67.9014 51.0691L70.481 48.4858C71.173 47.7928 71.173 46.6752 70.481 45.9821ZM50.0144 63.2811C49.9202 63.7057 50.303 64.0862 50.7271 63.9829L56.4959 62.5822L51.3219 57.3979L50.0144 63.2811Z" fill="white"/>
<path d="M63.9804 18H57.7324C57.3866 17.4022 56.7403 17 56 17H36C35.2597 17 34.6134 17.4022 34.2676 18H27.4494C26.0966 18 25 19.0966 25 20.4494V67.1865C25 68.5393 26.0966 69.6359 27.4494 69.6359H63.981C65.3338 69.6359 66.4304 68.5393 66.4304 67.1865V58H64.1304V67.1865C64.1304 67.269 64.0635 67.3359 63.981 67.3359H27.4494C27.3669 67.3359 27.3 67.269 27.3 67.1865V20.4494C27.3 20.3669 27.3669 20.3 27.4494 20.3H34.0224C34.1671 21.2623 34.9974 22 36 22H56C57.0026 22 57.8329 21.2623 57.9776 20.3H63.9804C64.0633 20.3 64.1304 20.3672 64.1304 20.45V41H66.4304V20.45C66.4304 19.0969 65.3335 18 63.9804 18Z" fill="white"/>
</svg>
