<svg width="85" height="85" viewBox="0 0 85 85" fill="none" xmlns="http://www.w3.org/2000/svg">
<circle cx="42.5" cy="42.5" r="42.5" fill="#D83D89"/>
<rect x="56.6666" y="34.7312" width="10.0538" height="18.2796" fill="#D83D89"/>
<g clip-path="url(#clip0)">
<rect x="31.0753" y="32.9032" width="21.0215" height="2.74194" rx="1.37097" fill="white"/>
<rect x="31.0753" y="39.3011" width="21.0215" height="2.74193" rx="1.37097" fill="white"/>
<rect x="31.0753" y="45.6989" width="10.0538" height="2.74194" rx="1.37097" fill="white"/>
<path d="M55.6048 43.7933L60.3364 48.5316L53.3925 55.4985L48.6637 50.7602L55.6048 43.7933ZM64.4182 42.0267L62.3081 39.9136C61.4926 39.0969 60.1684 39.0969 59.3502 39.9136L57.3289 41.9377L62.0605 46.6761L64.4182 44.315C65.0506 43.6816 65.0506 42.6601 64.4182 42.0267ZM45.7121 57.8375C45.626 58.2256 45.9759 58.5734 46.3635 58.479L51.636 57.1988L46.9072 52.4604L45.7121 57.8375Z" fill="white"/>
<path d="M58.4768 16.4516H52.7662C52.4502 15.9052 51.8594 15.5376 51.1828 15.5376H32.9033C32.2266 15.5376 31.6359 15.9052 31.3198 16.4516H25.0882C23.8518 16.4516 22.8495 17.4539 22.8495 18.6903V61.407C22.8495 62.6434 23.8518 63.6457 25.0882 63.6457H58.4773C59.7137 63.6457 60.716 62.6434 60.716 61.407V53.0107H58.6138V61.407C58.6138 61.4824 58.5527 61.5436 58.4773 61.5436H25.0882C25.0128 61.5436 24.9516 61.4824 24.9516 61.407V18.6903C24.9516 18.6149 25.0128 18.5538 25.0882 18.5538H31.0957C31.228 19.4332 31.9869 20.1075 32.9033 20.1075H51.1828C52.0992 20.1075 52.8581 19.4332 52.9904 18.5538H58.4768C58.5525 18.5538 58.6138 18.6151 58.6138 18.6909V37.4731H60.716V18.6909C60.716 17.4542 59.7135 16.4516 58.4768 16.4516Z" fill="white"/>
</g>
<defs>
<clipPath id="clip0">
<rect width="49.3548" height="49.3548" fill="white" transform="translate(17.3656 14.6237)"/>
</clipPath>
</defs>
</svg>
