<svg width="86" height="85" viewBox="0 0 86 85" fill="none" xmlns="http://www.w3.org/2000/svg">
<ellipse cx="43" cy="42.5" rx="43" ry="42.5" fill="#95C53D"/>
<g clip-path="url(#clip0)">
<path d="M25.8925 17.7763C25.8925 16.5399 26.9066 15.5376 28.1575 15.5376H52.7907C53.345 15.5376 53.8701 15.7833 54.2214 16.2071L63.7856 27.7449C64.0564 28.0716 64.2045 28.481 64.2045 28.9033V46.0596C63.5424 45.6166 62.8304 45.2065 62.0776 44.8638V29.0013L61.9231 28.815H53.739C53.1078 28.815 52.5984 28.3049 52.6066 27.6811L52.7372 17.7336L52.6594 17.6398H28.1575C28.0812 17.6398 28.0193 17.7009 28.0193 17.7763V60.493C28.0193 60.5685 28.0812 60.6296 28.1575 60.6296H61.9394C62.0157 60.6296 62.0776 60.5685 62.0776 60.493V56.7015C62.8305 56.3982 63.5425 56.0352 64.2045 55.6433V60.493C64.2045 61.7294 63.1904 62.7318 61.9394 62.7318H28.1575C26.9066 62.7318 25.8925 61.7294 25.8925 60.493V17.7763Z" fill="white"/>
<path d="M35.1398 33.3602C35.1398 32.603 35.7608 31.9892 36.5269 31.9892H53.172C53.9381 31.9892 54.5591 32.603 54.5591 33.3602C54.5591 34.1174 53.9381 34.7312 53.172 34.7312H36.5269C35.7608 34.7312 35.1398 34.1174 35.1398 33.3602Z" fill="white"/>
<path d="M36.5269 39.3011C35.7608 39.3011 35.1398 39.9149 35.1398 40.672C35.1398 41.4292 35.7608 42.043 36.5269 42.043H53.172C53.9381 42.043 54.5591 41.4292 54.5591 40.672C54.5591 39.9149 53.9381 39.3011 53.172 39.3011H36.5269Z" fill="white"/>
<path d="M54.492 51.129C54.492 49.3501 55.9738 47.9032 57.7946 47.9032C59.6155 47.9032 61.0972 49.3501 61.0972 51.129C61.0972 52.9078 59.6155 54.3548 57.7946 54.3548C55.9738 54.3548 54.492 52.9078 54.492 51.129Z" fill="white"/>
<path fill-rule="evenodd" clip-rule="evenodd" d="M69.2756 50.8843C69.0668 50.598 64.0849 43.871 57.7957 43.871C51.5064 43.871 46.5249 50.598 46.3157 50.8843C46.2047 51.0359 46.2112 51.2484 46.3306 51.3932C46.5395 51.646 51.5207 57.5806 57.7957 57.5806C64.071 57.5806 69.0518 51.646 69.2606 51.3932C69.3804 51.2484 69.3866 51.0363 69.2756 50.8843ZM57.7957 45.4839C60.3548 45.4839 62.7956 46.871 64.743 48.4965C65.8963 49.4591 66.7933 50.4357 67.3385 51.0797C66.7931 51.6436 65.9208 52.4743 64.8084 53.2943C62.8783 54.717 60.4148 55.9677 57.7957 55.9677C55.1768 55.9677 52.7132 54.717 50.783 53.2943C49.6706 52.4743 48.7983 51.6437 48.2529 51.0798C48.7983 50.4355 49.6953 49.459 50.8485 48.4964C52.7958 46.871 55.2365 45.4839 57.7957 45.4839Z" fill="white"/>
</g>
<defs>
<clipPath id="clip0">
<rect width="49.9355" height="49.3801" fill="white" transform="translate(19.4193 14.6237)"/>
</clipPath>
</defs>
</svg>
