<svg width="121" height="121" viewBox="0 0 121 121" fill="none" xmlns="http://www.w3.org/2000/svg">
<g filter="url(#filter0_d)">
<circle cx="60.5" cy="55.5" r="53.5" fill="#D83D89"/>
<circle cx="60.5" cy="55.5" r="54.5" stroke="white" stroke-width="2"/>
</g>
<path d="M41.4815 20.1927C41.4815 18.9408 42.4969 17.9259 43.7495 17.9259H68.4145C68.9695 17.9259 69.4953 18.1747 69.847 18.6038L79.4236 30.2864C79.6948 30.6172 79.843 31.0317 79.843 31.4594V48.8311C79.1801 48.3825 78.4672 47.9672 77.7134 47.6203V31.5586L77.5587 31.37H69.364C68.732 31.37 68.2219 30.8535 68.2301 30.2218L68.3609 20.1495L68.283 20.0544H43.7495C43.6731 20.0544 43.6111 20.1164 43.6111 20.1927V63.4457C43.6111 63.5221 43.6731 63.584 43.7495 63.584H77.575C77.6514 63.584 77.7134 63.5221 77.7134 63.4457V59.6066C78.4672 59.2995 79.1802 58.9319 79.843 58.5351V63.4457C79.843 64.6976 78.8276 65.7125 77.575 65.7125H43.7495C42.4969 65.7125 41.4815 64.6976 41.4815 63.4457V20.1927Z" fill="white"/>
<path d="M50.7407 35.9722C50.7407 35.2056 51.3626 34.5841 52.1296 34.5841H68.7963C69.5634 34.5841 70.1852 35.2056 70.1852 35.9722C70.1852 36.7389 69.5634 37.3604 68.7963 37.3604H52.1296C51.3626 37.3604 50.7407 36.7389 50.7407 35.9722Z" fill="white"/>
<path d="M52.1296 41.9877C51.3626 41.9877 50.7407 42.6092 50.7407 43.3759C50.7407 44.1425 51.3626 44.764 52.1296 44.764H68.7963C69.5634 44.764 70.1852 44.1425 70.1852 43.3759C70.1852 42.6092 69.5634 41.9877 68.7963 41.9877H52.1296Z" fill="white"/>
<path d="M70.118 53.9636C70.118 52.1624 71.6017 50.6973 73.4249 50.6973C75.248 50.6973 76.7317 52.1624 76.7317 53.9636C76.7317 55.7648 75.248 57.2299 73.4249 57.2299C71.6017 57.2299 70.118 55.7648 70.118 53.9636Z" fill="white"/>
<path fill-rule="evenodd" clip-rule="evenodd" d="M84.9207 53.7159C84.7116 53.426 79.7233 46.6145 73.4259 46.6145C67.1285 46.6145 62.1406 53.426 61.9311 53.7159C61.82 53.8694 61.8264 54.0846 61.946 54.2311C62.1551 54.4871 67.1428 60.4963 73.4259 60.4963C79.7094 60.4963 84.6965 54.4871 84.9056 54.2311C85.0256 54.0846 85.0318 53.8698 84.9207 53.7159ZM73.4259 48.2477C75.9884 48.2477 78.4323 49.6522 80.3822 51.2981C81.537 52.2727 82.4351 53.2616 82.981 53.9137C82.4349 54.4848 81.5616 55.3258 80.4477 56.1561C78.515 57.5967 76.0484 58.8631 73.4259 58.8631C70.8036 58.8631 68.3369 57.5967 66.4042 56.1561C65.2903 55.3258 64.4169 54.4849 63.8708 53.9138C64.4169 53.2615 65.3151 52.2726 66.4697 51.298C68.4196 49.6522 70.8634 48.2477 73.4259 48.2477Z" fill="white"/>
<defs>
<filter id="filter0_d" x="0" y="0" width="121" height="121" filterUnits="userSpaceOnUse" color-interpolation-filters="sRGB">
<feFlood flood-opacity="0" result="BackgroundImageFix"/>
<feColorMatrix in="SourceAlpha" type="matrix" values="0 0 0 0 0 0 0 0 0 0 0 0 0 0 0 0 0 0 127 0"/>
<feOffset dy="5"/>
<feGaussianBlur stdDeviation="2.5"/>
<feColorMatrix type="matrix" values="0 0 0 0 0 0 0 0 0 0 0 0 0 0 0 0 0 0 0.15 0"/>
<feBlend mode="normal" in2="BackgroundImageFix" result="effect1_dropShadow"/>
<feBlend mode="normal" in="SourceGraphic" in2="effect1_dropShadow" result="shape"/>
</filter>
</defs>
</svg>
