<svg width="20" height="20" viewBox="0 0 20 20" fill="none" xmlns="http://www.w3.org/2000/svg">
<path d="M11.815 10.2422C11.815 10.7076 11.4406 11.0864 10.9804 11.0864H9.01962C8.55979 11.0864 8.18539 10.7076 8.18539 10.2422V9.63025H1.00073V16.7987C1.00073 17.1479 1.28078 17.4311 1.62601 17.4311H18.3744C18.7196 17.4311 19 17.1479 19 16.7987V9.63025H11.815V10.2422Z" fill="#454545"/>
<path d="M18.374 4.73316H13.8634C13.8987 4.6537 13.9196 4.56625 13.9196 4.47404C13.9196 2.98845 12.4197 1.77991 10.5768 1.77991H9.42219C7.57891 1.77991 6.07937 2.98845 6.07937 4.47404C6.07937 4.56662 6.10064 4.65407 6.13559 4.73316H1.62528C1.28004 4.73316 1 5.01639 1 5.36592V8.87104H8.18466V8.25911C8.18466 7.79367 8.55906 7.41537 9.01889 7.41537H10.9797C11.4399 7.41537 11.8143 7.79404 11.8143 8.25911V8.87104H18.9993V5.36592C18.9997 5.01639 18.7196 4.73316 18.374 4.73316ZM7.27476 4.73316C7.31008 4.6537 7.33054 4.56625 7.33054 4.47404C7.33054 3.69953 8.28846 3.04533 9.42254 3.04533H10.5771C11.7108 3.04533 12.6691 3.69953 12.6691 4.47404C12.6691 4.56662 12.69 4.65407 12.7253 4.73316H7.27476Z" fill="#454545"/>
<path d="M10.9803 10.3271C11.0264 10.3271 11.0642 10.2892 11.0642 10.2421V9.63021V9.25043V8.87066V8.25873C11.0642 8.21208 11.0264 8.17419 10.9803 8.17419H9.01948C8.97335 8.17419 8.93555 8.21208 8.93555 8.25873V8.87066V9.25043V9.63021V10.2421C8.93555 10.2892 8.97335 10.3271 9.01948 10.3271H10.9803Z" fill="#454545"/>
</svg>
