<svg width="25" height="25" viewBox="0 0 25 25" fill="none" xmlns="http://www.w3.org/2000/svg">
<mask id="path-1-outside-1" maskUnits="userSpaceOnUse" x="3" y="2" width="19" height="20" fill="black">
<rect fill="white" x="3" y="2" width="19" height="20"/>
<path fill-rule="evenodd" clip-rule="evenodd" d="M12.085 16.8186C12.0833 16.8168 12.0807 16.8153 12.079 16.8132L7.15798 11.4515C6.93855 11.2124 6.94895 10.8355 7.18141 10.6094C7.41387 10.3833 7.78007 10.3941 7.99979 10.6336L11.9212 14.9057V3.59574C11.9212 3.26689 12.1806 3 12.5001 3C12.8197 3 13.0791 3.26689 13.0791 3.59574V14.9057L17.0002 10.6336C17.2197 10.3941 17.5861 10.3833 17.8186 10.6094C18.051 10.8355 18.0615 11.2124 17.842 11.4515L12.9208 16.8132C12.9198 16.8144 12.9185 16.8154 12.9173 16.8164C12.9164 16.8171 12.9154 16.8179 12.9147 16.8186C12.8999 16.8346 12.8835 16.8481 12.8668 16.8619C12.8639 16.8643 12.8609 16.8668 12.8579 16.8692C12.8536 16.8727 12.8493 16.8766 12.845 16.8805C12.8394 16.8856 12.8336 16.8907 12.8276 16.8951C12.8032 16.9121 12.7766 16.9261 12.7497 16.9395C12.7459 16.9413 12.7423 16.9434 12.7387 16.9456C12.7351 16.9478 12.7315 16.9499 12.7277 16.9517C12.6576 16.9824 12.5809 17 12.4999 17C12.4188 17 12.3421 16.9827 12.272 16.9517C12.268 16.9498 12.2641 16.9476 12.2603 16.9453C12.2568 16.9433 12.2533 16.9412 12.2497 16.9395C12.2228 16.9261 12.1965 16.9124 12.1721 16.8951C12.1663 16.8909 12.1608 16.886 12.1554 16.8811C12.1508 16.877 12.1462 16.8729 12.1415 16.8692C12.138 16.8663 12.1345 16.8634 12.131 16.8605C12.1151 16.8472 12.0993 16.834 12.085 16.8186ZM19.8276 16.6319C19.8276 16.2831 20.0902 16 20.4138 16C20.7374 16 21 16.2828 21 16.6319V18.1563C21 19.7775 19.866 21 18.3621 21H6.63793C5.13402 21 4 19.7775 4 18.1563V16.6319C4 16.2831 4.26262 16 4.58621 16C4.90979 16 5.17241 16.2831 5.17241 16.6319V18.1563C5.17241 19.0716 5.78881 19.7361 6.63793 19.7361H18.3621C19.2112 19.7361 19.8276 19.0716 19.8276 18.1563V16.6319Z"/>
</mask>
<path fill-rule="evenodd" clip-rule="evenodd" d="M12.085 16.8186C12.0833 16.8168 12.0807 16.8153 12.079 16.8132L7.15798 11.4515C6.93855 11.2124 6.94895 10.8355 7.18141 10.6094C7.41387 10.3833 7.78007 10.3941 7.99979 10.6336L11.9212 14.9057V3.59574C11.9212 3.26689 12.1806 3 12.5001 3C12.8197 3 13.0791 3.26689 13.0791 3.59574V14.9057L17.0002 10.6336C17.2197 10.3941 17.5861 10.3833 17.8186 10.6094C18.051 10.8355 18.0615 11.2124 17.842 11.4515L12.9208 16.8132C12.9198 16.8144 12.9185 16.8154 12.9173 16.8164C12.9164 16.8171 12.9154 16.8179 12.9147 16.8186C12.8999 16.8346 12.8835 16.8481 12.8668 16.8619C12.8639 16.8643 12.8609 16.8668 12.8579 16.8692C12.8536 16.8727 12.8493 16.8766 12.845 16.8805C12.8394 16.8856 12.8336 16.8907 12.8276 16.8951C12.8032 16.9121 12.7766 16.9261 12.7497 16.9395C12.7459 16.9413 12.7423 16.9434 12.7387 16.9456C12.7351 16.9478 12.7315 16.9499 12.7277 16.9517C12.6576 16.9824 12.5809 17 12.4999 17C12.4188 17 12.3421 16.9827 12.272 16.9517C12.268 16.9498 12.2641 16.9476 12.2603 16.9453C12.2568 16.9433 12.2533 16.9412 12.2497 16.9395C12.2228 16.9261 12.1965 16.9124 12.1721 16.8951C12.1663 16.8909 12.1608 16.886 12.1554 16.8811C12.1508 16.877 12.1462 16.8729 12.1415 16.8692C12.138 16.8663 12.1345 16.8634 12.131 16.8605C12.1151 16.8472 12.0993 16.834 12.085 16.8186ZM19.8276 16.6319C19.8276 16.2831 20.0902 16 20.4138 16C20.7374 16 21 16.2828 21 16.6319V18.1563C21 19.7775 19.866 21 18.3621 21H6.63793C5.13402 21 4 19.7775 4 18.1563V16.6319C4 16.2831 4.26262 16 4.58621 16C4.90979 16 5.17241 16.2831 5.17241 16.6319V18.1563C5.17241 19.0716 5.78881 19.7361 6.63793 19.7361H18.3621C19.2112 19.7361 19.8276 19.0716 19.8276 18.1563V16.6319Z" fill="white"/>
<path d="M12.079 16.8132L12.4631 16.4932L12.4554 16.484L12.4473 16.4752L12.079 16.8132ZM12.085 16.8186L12.4521 16.4789L12.4436 16.4702L12.085 16.8186ZM7.15798 11.4515L6.78954 11.7896L6.78961 11.7896L7.15798 11.4515ZM7.18141 10.6094L6.8328 10.251L7.18141 10.6094ZM7.99979 10.6336L7.63136 10.9716L7.63144 10.9717L7.99979 10.6336ZM11.9212 14.9057L11.5528 15.2438L12.4212 16.1899V14.9057H11.9212ZM13.0791 14.9057H12.5791V16.1899L13.4475 15.2438L13.0791 14.9057ZM17.0002 10.6336L17.3686 10.9717L17.3689 10.9713L17.0002 10.6336ZM17.8186 10.6094L17.47 10.9678L17.47 10.9678L17.8186 10.6094ZM17.842 11.4515L18.2104 11.7896L18.2105 11.7896L17.842 11.4515ZM12.9208 16.8132L12.5524 16.4751L12.5443 16.484L12.5366 16.4932L12.9208 16.8132ZM12.9173 16.8164L13.2271 17.2089L13.2271 17.2089L12.9173 16.8164ZM12.9147 16.8186L12.556 16.4701L12.5477 16.479L12.9147 16.8186ZM12.8668 16.8619L13.185 17.2476L13.1851 17.2475L12.8668 16.8619ZM12.8579 16.8692L13.1689 17.261L13.1778 17.2536L12.8579 16.8692ZM12.845 16.8805L13.1803 17.2513L13.1803 17.2513L12.845 16.8805ZM12.8276 16.8951L13.1138 17.3052L13.1205 17.3003L12.8276 16.8951ZM12.7497 16.9395L12.9642 17.3912L12.9725 17.3871L12.7497 16.9395ZM12.7277 16.9517L12.9283 17.4097L12.9353 17.4066L12.9422 17.4034L12.7277 16.9517ZM12.272 16.9517L12.0641 17.4065L12.0698 17.409L12.272 16.9517ZM12.2603 16.9453L12.5148 16.5149L12.5147 16.5149L12.2603 16.9453ZM12.2497 16.9395L12.0269 17.3872L12.0352 17.3911L12.2497 16.9395ZM12.1721 16.8951L11.8791 17.3003L11.8826 17.3027L12.1721 16.8951ZM12.1554 16.8811L11.8217 17.2534L11.8217 17.2535L12.1554 16.8811ZM12.1415 16.8692L11.8188 17.2512L11.8273 17.2583L11.836 17.2651L12.1415 16.8692ZM12.131 16.8605L11.8107 17.2444L11.8107 17.2444L12.131 16.8605ZM11.6948 17.1333C11.7151 17.1577 11.734 17.1757 11.7465 17.1868C11.7586 17.1977 11.7688 17.2058 11.7712 17.2077C11.7719 17.2083 11.7726 17.2088 11.7727 17.2089C11.7729 17.2091 11.7726 17.2088 11.7722 17.2085C11.7715 17.2079 11.7688 17.2058 11.7654 17.203C11.7591 17.1978 11.744 17.1852 11.7265 17.1671L12.4436 16.4702C12.434 16.4603 12.4254 16.4522 12.4185 16.4461C12.4117 16.4399 12.4059 16.435 12.4018 16.4317C12.3979 16.4284 12.3947 16.4259 12.3934 16.4249C12.393 16.4246 12.3927 16.4243 12.3925 16.4242C12.3923 16.424 12.3922 16.4239 12.3921 16.4239C12.392 16.4237 12.3924 16.424 12.3928 16.4244C12.3941 16.4254 12.4032 16.4326 12.4143 16.4426C12.4258 16.4529 12.4437 16.4699 12.4631 16.4932L11.6948 17.1333ZM6.78961 11.7896L11.7106 17.1513L12.4473 16.4752L7.52635 11.1135L6.78961 11.7896ZM6.8328 10.251C6.40597 10.6661 6.38773 11.3516 6.78954 11.7896L7.52643 11.1135C7.50932 11.0949 7.49922 11.0691 7.50005 11.0394C7.50087 11.0098 7.51233 10.985 7.53002 10.9678L6.8328 10.251ZM8.36823 10.2955C7.9586 9.84906 7.26798 9.82774 6.8328 10.251L7.53002 10.9678C7.54692 10.9514 7.56454 10.9462 7.58066 10.9467C7.5968 10.9472 7.61473 10.9535 7.63136 10.9716L8.36823 10.2955ZM12.2895 14.5676L8.36815 10.2955L7.63144 10.9717L11.5528 15.2438L12.2895 14.5676ZM11.4212 3.59574V14.9057H12.4212V3.59574H11.4212ZM12.5001 2.5C11.8911 2.5 11.4212 3.00431 11.4212 3.59574H12.4212C12.4212 3.52948 12.4701 3.5 12.5001 3.5V2.5ZM13.5791 3.59574C13.5791 3.00431 13.1092 2.5 12.5001 2.5V3.5C12.5302 3.5 12.5791 3.52948 12.5791 3.59574H13.5791ZM13.5791 14.9057V3.59574H12.5791V14.9057H13.5791ZM16.6319 10.2955L12.7108 14.5676L13.4475 15.2438L17.3686 10.9717L16.6319 10.2955ZM18.1672 10.251C17.7321 9.82787 17.0411 9.84885 16.6316 10.2958L17.3689 10.9713C17.3852 10.9535 17.403 10.9472 17.4192 10.9467C17.4354 10.9462 17.4531 10.9515 17.47 10.9678L18.1672 10.251ZM18.2105 11.7896C18.6123 11.3515 18.594 10.6661 18.1672 10.251L17.47 10.9678C17.4877 10.9851 17.4991 11.0098 17.5 11.0395C17.5008 11.0691 17.4907 11.0949 17.4736 11.1135L18.2105 11.7896ZM13.2891 17.1513L18.2104 11.7896L17.4737 11.1134L12.5524 16.4751L13.2891 17.1513ZM13.2271 17.2089C13.2271 17.2088 13.2279 17.2082 13.2287 17.2076C13.2297 17.2068 13.2311 17.2057 13.2329 17.2043C13.2363 17.2015 13.2417 17.197 13.2483 17.1913C13.2608 17.1804 13.282 17.1608 13.305 17.1332L12.5366 16.4932C12.5585 16.4669 12.5787 16.4484 12.59 16.4385C12.6005 16.4293 12.6099 16.4221 12.6075 16.4239L13.2271 17.2089ZM13.2733 17.1671C13.2579 17.1829 13.2446 17.1944 13.2377 17.2002C13.2312 17.2057 13.2255 17.2101 13.2271 17.2089L12.6075 16.4239C12.6075 16.4239 12.607 16.4243 12.6065 16.4248C12.6059 16.4252 12.605 16.4259 12.6039 16.4268C12.6018 16.4285 12.5983 16.4313 12.5942 16.4348C12.5864 16.4413 12.5723 16.4535 12.5561 16.4702L13.2733 17.1671ZM13.1851 17.2475C13.1976 17.2372 13.2404 17.2029 13.2816 17.1583L12.5477 16.479C12.5551 16.4711 12.5602 16.4666 12.5604 16.4664C12.5605 16.4663 12.5599 16.4669 12.5578 16.4686C12.5556 16.4705 12.5531 16.4726 12.5486 16.4762L13.1851 17.2475ZM13.1778 17.2536C13.1798 17.2519 13.182 17.2501 13.185 17.2476L12.5486 16.4762C12.5458 16.4786 12.542 16.4817 12.5381 16.4849L13.1778 17.2536ZM13.1803 17.2513C13.183 17.2489 13.1822 17.2497 13.1809 17.2508C13.1793 17.2522 13.175 17.256 13.1688 17.2609L12.5471 16.4776C12.528 16.4928 12.5117 16.5077 12.5097 16.5096L13.1803 17.2513ZM13.1205 17.3003C13.1525 17.2772 13.1784 17.2531 13.1803 17.2513L12.5097 16.5096C12.506 16.5129 12.5081 16.5109 12.5112 16.5083C12.5147 16.5053 12.523 16.4984 12.5346 16.49L13.1205 17.3003ZM12.9725 17.3871C13.0029 17.372 13.0574 17.3445 13.1138 17.3051L12.5413 16.4852C12.5463 16.4817 12.5485 16.4806 12.5458 16.4821C12.5429 16.4837 12.5376 16.4865 12.5269 16.4919L12.9725 17.3871ZM12.9949 17.375C12.9975 17.3734 12.9943 17.3754 12.9902 17.3777C12.9855 17.3803 12.9764 17.3854 12.9642 17.3911L12.5352 16.4878C12.5065 16.5015 12.4826 16.5162 12.4825 16.5162L12.9949 17.375ZM12.9422 17.4034C12.9709 17.3897 12.9949 17.375 12.9949 17.375L12.4825 16.5162C12.4798 16.5178 12.4831 16.5159 12.4872 16.5135C12.4918 16.5109 12.501 16.5058 12.5132 16.5001L12.9422 17.4034ZM12.4999 17.5C12.6545 17.5 12.7992 17.4662 12.9283 17.4097L12.5271 16.4937C12.516 16.4986 12.5074 16.5 12.4999 16.5V17.5ZM12.0698 17.409C12.2011 17.467 12.3465 17.5 12.4999 17.5V16.5C12.4911 16.5 12.4831 16.4983 12.4743 16.4944L12.0698 17.409ZM12.0058 17.3757C12.006 17.3758 12.0322 17.3918 12.0641 17.4064L12.48 16.497C12.4935 16.5032 12.5037 16.5087 12.5091 16.5117C12.5139 16.5143 12.5176 16.5166 12.5148 16.5149L12.0058 17.3757ZM12.0352 17.3911C12.0236 17.3856 12.0148 17.3808 12.0103 17.3783C12.0064 17.3761 12.0033 17.3742 12.0059 17.3757L12.5147 16.5149C12.5147 16.5149 12.4918 16.5009 12.4643 16.4878L12.0352 17.3911ZM11.8826 17.3027C11.9415 17.3446 11.9987 17.373 12.0269 17.3871L12.4726 16.4919C12.467 16.4891 12.4629 16.487 12.4596 16.4853C12.4564 16.4837 12.4546 16.4827 12.4537 16.4822C12.4518 16.4811 12.4553 16.483 12.4617 16.4875L11.8826 17.3027ZM11.8217 17.2535C11.8235 17.2551 11.8485 17.2781 11.8792 17.3003L12.4651 16.49C12.4763 16.498 12.4842 16.5047 12.4876 16.5076C12.4906 16.5101 12.4926 16.5119 12.489 16.5087L11.8217 17.2535ZM11.836 17.2651C11.8287 17.2595 11.8236 17.2551 11.8215 17.2533C11.8199 17.2519 11.8188 17.2509 11.8217 17.2534L12.4891 16.5088C12.487 16.5069 12.4687 16.4902 12.4469 16.4734L11.836 17.2651ZM11.8107 17.2444C11.8144 17.2475 11.8167 17.2494 11.8188 17.2512L12.4642 16.4873C12.4593 16.4832 12.4545 16.4792 12.4512 16.4765L11.8107 17.2444ZM11.7181 17.1583C11.7578 17.2012 11.7987 17.2344 11.8107 17.2444L12.4512 16.4765C12.447 16.473 12.4446 16.4709 12.4425 16.4691C12.4405 16.4675 12.4399 16.4669 12.44 16.467C12.4401 16.4671 12.445 16.4715 12.452 16.479L11.7181 17.1583ZM20.4138 15.5C19.7794 15.5 19.3276 16.043 19.3276 16.6319H20.3276C20.3276 16.5838 20.3455 16.5472 20.3659 16.5252C20.3857 16.5038 20.4029 16.5 20.4138 16.5V15.5ZM21.5 16.6319C21.5 16.0425 21.0481 15.5 20.4138 15.5V16.5C20.4248 16.5 20.442 16.5039 20.4617 16.5251C20.482 16.547 20.5 16.5835 20.5 16.6319H21.5ZM21.5 18.1563V16.6319H20.5V18.1563H21.5ZM18.3621 21.5C20.1768 21.5 21.5 20.0176 21.5 18.1563H20.5C20.5 19.5374 19.5551 20.5 18.3621 20.5V21.5ZM6.63793 21.5H18.3621V20.5H6.63793V21.5ZM3.5 18.1563C3.5 20.0176 4.82317 21.5 6.63793 21.5V20.5C5.44487 20.5 4.5 19.5374 4.5 18.1563H3.5ZM3.5 16.6319V18.1563H4.5V16.6319H3.5ZM4.58621 15.5C3.95177 15.5 3.5 16.043 3.5 16.6319H4.5C4.5 16.5838 4.51792 16.5472 4.53833 16.5252C4.55816 16.5038 4.57534 16.5 4.58621 16.5V15.5ZM5.67241 16.6319C5.67241 16.043 5.22064 15.5 4.58621 15.5V16.5C4.59707 16.5 4.61426 16.5038 4.63409 16.5252C4.65449 16.5472 4.67241 16.5838 4.67241 16.6319H5.67241ZM5.67241 18.1563V16.6319H4.67241V18.1563H5.67241ZM6.63793 19.2361C6.09966 19.2361 5.67241 18.8315 5.67241 18.1563H4.67241C4.67241 19.3117 5.47796 20.2361 6.63793 20.2361V19.2361ZM18.3621 19.2361H6.63793V20.2361H18.3621V19.2361ZM19.3276 18.1563C19.3276 18.8315 18.9003 19.2361 18.3621 19.2361V20.2361C19.522 20.2361 20.3276 19.3117 20.3276 18.1563H19.3276ZM19.3276 16.6319V18.1563H20.3276V16.6319H19.3276Z" fill="white" mask="url(#path-1-outside-1)"/>
</svg>
