<svg width="25" height="25" viewBox="0 0 25 25" fill="none" xmlns="http://www.w3.org/2000/svg">
<path d="M3.75 1.5C3.75 1.36193 3.86193 1.25 4 1.25H17.1598L22.25 7.03306V13V23.5C22.25 23.6381 22.1381 23.75 22 23.75H4C3.86193 23.75 3.75 23.6381 3.75 23.5V1.5Z" stroke="#00A3EA" stroke-width="1.5"/>
<path d="M17.75 7.11078H22.375L16.75 1.125V6.11078C16.75 6.66306 17.1977 7.11078 17.75 7.11078Z" fill="#00A3EA"/>
<path fill-rule="evenodd" clip-rule="evenodd" d="M12.8878 12.466L14.4327 10.1038H17.8351L14.6886 14.431L18.0807 18.6111H14.628L12.8764 16.2006L11.1394 18.6111H7.76929L11.0597 14.2644L7.96243 10.1038H11.2755L12.8878 12.466Z" fill="#00A3EA"/>
</svg>
