<svg width="31" height="31" viewBox="0 0 31 31" fill="none" xmlns="http://www.w3.org/2000/svg">
<circle cx="15.3929" cy="15.3929" r="15.3929" fill="#D55D4C"/>
<path fill-rule="evenodd" clip-rule="evenodd" d="M16.4749 17.6156C16.4032 18.2237 15.6944 18.6913 14.8429 18.6913C13.9914 18.6913 13.2826 18.2237 13.2109 17.6156L12.1038 9.83124C12.0394 9.28166 12.2993 8.73837 12.8199 8.3326C13.3398 7.92734 14.0739 7.69641 14.8429 7.69641C15.6119 7.69641 16.346 7.92734 16.8659 8.3326C17.3864 8.73837 17.6464 9.28166 17.582 9.83124L16.4749 17.6156ZM12.9332 21.6194C12.9332 20.6093 13.7518 19.7908 14.7619 19.7908C15.7719 19.7908 16.5905 20.6093 16.5905 21.6194C16.5905 22.6295 15.7719 23.448 14.7619 23.448C13.7518 23.448 12.9332 22.6295 12.9332 21.6194Z" fill="white"/>
</svg>
