<svg width="117" height="120" viewBox="0 0 117 120" fill="none" xmlns="http://www.w3.org/2000/svg">
<path d="M89.0073 40.0015H5.00728C3.35042 40.0015 2.00728 41.3446 2.00728 43.0015L2.00724 92.5015C2.00724 92.5015 1.00732 107.001 22.5073 107.001L89.0505 106.044C90.6903 106.02 92.0073 104.684 92.0073 103.044L92.0073 79.0015V43.0015C92.0073 41.3446 90.6642 40.0015 89.0073 40.0015Z" fill="white" stroke="#8B9AA9" stroke-width="2.5"/>
<path d="M15.0073 18.0015C15.0073 16.3446 16.3505 15.0015 18.0073 15.0015H75.0073C76.6642 15.0015 78.0073 16.3446 78.0073 18.0015V105.501H15.0073V18.0015Z" fill="white" stroke="#8B9AA9" stroke-width="2.5"/>
<path d="M103.007 29.5015H75.8017C75.0141 29.5015 74.2998 29.9637 73.9772 30.6823L64.0375 52.8206C63.7149 53.5392 63.0006 54.0015 62.2129 54.0015H29.5073C26.7459 54.0015 24.5073 56.24 24.5073 59.0015V95.0015C24.174 98.6681 21.7073 106.001 14.5073 106.001H103.007C105.769 106.001 108.007 103.763 108.007 101.001V34.5015C108.007 31.74 105.769 29.5015 103.007 29.5015Z" fill="white" stroke="#8B9AA9" stroke-width="2.5"/>
<line x1="27.5073" y1="34.5015" x2="35.5073" y2="34.5015" stroke="#8B9AA9" stroke-width="3" stroke-linecap="round"/>
<line x1="27.5073" y1="41.5015" x2="48.5073" y2="41.5015" stroke="#8B9AA9" stroke-width="3" stroke-linecap="round"/>
<line x1="27.5073" y1="47.5015" x2="30.5073" y2="47.5015" stroke="#8B9AA9" stroke-width="3" stroke-linecap="round"/>
<line x1="36.5073" y1="47.5015" x2="48.5073" y2="47.5015" stroke="#8B9AA9" stroke-width="3" stroke-linecap="round"/>
<line x1="41.5073" y1="34.5015" x2="43.5073" y2="34.5015" stroke="#8B9AA9" stroke-width="3" stroke-linecap="round"/>
<path d="M44.4412 11.4596V10.2059C44.4412 8.75818 43.2676 7.58457 41.8198 7.58457V7.58457C40.3721 7.58457 39.1985 8.75818 39.1985 10.2059L39.1985 25.592C39.1985 28.2986 41.3926 30.4927 44.0993 30.4927V30.4927C46.8059 30.4927 49 28.2986 49 25.592V8.49633C49 4.9085 46.0915 2 42.5037 2V2C38.9158 2 36.0073 4.90851 36.0073 8.49634V14.0015" stroke="#8B9AA9" stroke-width="2.32677"/>
<circle cx="96" cy="98.0015" r="21" fill="#D45D4C"/>
<mask id="path-11-outside-1" maskUnits="userSpaceOnUse" x="88" y="90.0015" width="17" height="17" fill="black">
<rect fill="white" x="88" y="90.0015" width="17" height="17"/>
<path fill-rule="evenodd" clip-rule="evenodd" d="M91.4413 91.4203C90.8828 90.8618 89.9773 90.8618 89.4189 91.4203C88.8604 91.9788 88.8604 92.8843 89.4189 93.4429L94.4752 98.4994L89.4195 103.555C88.861 104.114 88.861 105.019 89.4195 105.578C89.9779 106.136 90.8834 106.136 91.4419 105.578L96.4976 100.522L101.553 105.578C102.112 106.136 103.017 106.136 103.576 105.578C104.134 105.019 104.134 104.114 103.576 103.555L98.52 98.4994L103.576 93.4429C104.135 92.8843 104.135 91.9788 103.576 91.4203C103.018 90.8618 102.112 90.8618 101.554 91.4203L96.4976 96.4769L91.4413 91.4203Z"/>
</mask>
<path fill-rule="evenodd" clip-rule="evenodd" d="M91.4413 91.4203C90.8828 90.8618 89.9773 90.8618 89.4189 91.4203C88.8604 91.9788 88.8604 92.8843 89.4189 93.4429L94.4752 98.4994L89.4195 103.555C88.861 104.114 88.861 105.019 89.4195 105.578C89.9779 106.136 90.8834 106.136 91.4419 105.578L96.4976 100.522L101.553 105.578C102.112 106.136 103.017 106.136 103.576 105.578C104.134 105.019 104.134 104.114 103.576 103.555L98.52 98.4994L103.576 93.4429C104.135 92.8843 104.135 91.9788 103.576 91.4203C103.018 90.8618 102.112 90.8618 101.554 91.4203L96.4976 96.4769L91.4413 91.4203Z" fill="white"/>
<path d="M89.4189 91.4203L89.0653 91.0668L89.0653 91.0668L89.4189 91.4203ZM91.4413 91.4203L91.0877 91.7739L91.0877 91.7739L91.4413 91.4203ZM89.4189 93.4429L89.7724 93.0893L89.7724 93.0893L89.4189 93.4429ZM94.4752 98.4994L94.8287 98.853L95.1822 98.4994L94.8287 98.1459L94.4752 98.4994ZM89.4195 103.555L89.0659 103.202L89.0659 103.202L89.4195 103.555ZM89.4195 105.578L89.0659 105.931L89.0659 105.931L89.4195 105.578ZM91.4419 105.578L91.7954 105.931L91.7954 105.931L91.4419 105.578ZM96.4976 100.522L96.8511 100.168L96.4976 99.8148L96.144 100.168L96.4976 100.522ZM101.553 105.578L101.2 105.931L101.2 105.931L101.553 105.578ZM103.576 105.578L103.929 105.931L103.929 105.931L103.576 105.578ZM103.576 103.555L103.929 103.202L103.929 103.202L103.576 103.555ZM98.52 98.4994L98.1664 98.1459L97.8129 98.4994L98.1664 98.853L98.52 98.4994ZM103.576 93.4429L103.223 93.0893L103.223 93.0893L103.576 93.4429ZM103.576 91.4203L103.223 91.7739L103.223 91.7739L103.576 91.4203ZM101.554 91.4203L101.907 91.7739L101.907 91.7739L101.554 91.4203ZM96.4976 96.4769L96.144 96.8305L96.4976 97.184L96.8511 96.8305L96.4976 96.4769ZM89.7724 91.7739C90.1356 91.4107 90.7245 91.4107 91.0877 91.7739L91.7948 91.0668C91.0411 90.313 89.819 90.313 89.0653 91.0668L89.7724 91.7739ZM89.7724 93.0893C89.4092 92.7261 89.4092 92.1371 89.7724 91.7739L89.0653 91.0668C88.3116 91.8206 88.3116 93.0426 89.0653 93.7964L89.7724 93.0893ZM94.8287 98.1459L89.7724 93.0893L89.0653 93.7964L94.1216 98.853L94.8287 98.1459ZM94.1216 98.1459L89.0659 103.202L89.773 103.909L94.8287 98.853L94.1216 98.1459ZM89.0659 103.202C88.3122 103.956 88.3122 105.178 89.0659 105.931L89.773 105.224C89.4098 104.861 89.4098 104.272 89.773 103.909L89.0659 103.202ZM89.0659 105.931C89.8196 106.685 91.0417 106.685 91.7954 105.931L91.0883 105.224C90.7251 105.588 90.1362 105.588 89.773 105.224L89.0659 105.931ZM91.7954 105.931L96.8511 100.875L96.144 100.168L91.0883 105.224L91.7954 105.931ZM101.907 105.224L96.8511 100.168L96.144 100.875L101.2 105.931L101.907 105.224ZM103.222 105.224C102.859 105.588 102.27 105.588 101.907 105.224L101.2 105.931C101.953 106.685 103.175 106.685 103.929 105.931L103.222 105.224ZM103.222 103.909C103.585 104.272 103.585 104.861 103.222 105.224L103.929 105.931C104.683 105.178 104.683 103.956 103.929 103.202L103.222 103.909ZM98.1664 98.853L103.222 103.909L103.929 103.202L98.8735 98.1459L98.1664 98.853ZM98.8735 98.853L103.93 93.7964L103.223 93.0893L98.1664 98.1459L98.8735 98.853ZM103.93 93.7964C104.684 93.0426 104.684 91.8206 103.93 91.0668L103.223 91.7739C103.586 92.1371 103.586 92.7261 103.223 93.0893L103.93 93.7964ZM103.93 91.0668C103.176 90.313 101.954 90.313 101.2 91.0668L101.907 91.7739C102.271 91.4107 102.859 91.4107 103.223 91.7739L103.93 91.0668ZM101.2 91.0668L96.144 96.1234L96.8511 96.8305L101.907 91.7739L101.2 91.0668ZM91.0877 91.7739L96.144 96.8305L96.8511 96.1234L91.7948 91.0668L91.0877 91.7739Z" fill="white" mask="url(#path-11-outside-1)"/>
</svg>
