<svg width="25" height="25" viewBox="0 0 25 25" fill="none" xmlns="http://www.w3.org/2000/svg">
<path d="M24.0692 12.8385C24.043 12.7636 23.4028 10.9841 21.062 9.19794C20.7165 8.93405 20.2248 9.00382 19.9647 9.3533C19.7042 9.70277 19.7728 10.1992 20.1183 10.4631C21.4695 11.4945 22.1386 12.4977 22.4199 13.0112C21.4244 14.3029 17.7105 18.6408 12.7528 18.6408C12.0829 18.6408 11.4333 18.5964 10.8735 18.5124C10.4449 18.4482 10.0473 18.7474 9.98343 19.1805C9.91996 19.6132 10.2158 20.0161 10.6436 20.0803C11.2876 20.1766 11.9975 20.2257 12.7532 20.2257C19.3638 20.2257 23.791 13.8235 23.9763 13.5509C24.1178 13.3425 24.1523 13.0774 24.0692 12.8385Z" fill="white"/>
<path d="M4.49929 16.8414C4.74414 16.8414 4.98549 16.7253 5.13867 16.5081C5.3894 16.1515 5.30676 15.6566 4.95417 15.403C3.87918 14.6296 3.74091 14.4371 3.22731 13.7223C3.10077 13.5463 2.95459 13.3434 2.77242 13.1002C3.93478 11.6321 7.87826 7.15918 12.7529 7.15918C13.1768 7.15918 13.5866 7.21144 14.1233 7.33427C14.5468 7.43095 14.9648 7.16271 15.0604 6.73558C15.1556 6.30885 14.8907 5.88454 14.4688 5.78826C14.0328 5.6888 13.444 5.57428 12.7529 5.57428C6.14786 5.57428 1.34448 12.3572 1.14312 12.6461C0.942928 12.933 0.953865 13.3193 1.16894 13.5947C1.52231 14.0464 1.76483 14.3832 1.95954 14.6538C2.5558 15.4839 2.82453 15.8159 4.04564 16.6943C4.18315 16.7934 4.34219 16.8414 4.49929 16.8414Z" fill="white"/>
<path d="M12.8252 16.1817C14.6387 16.1817 16.1144 14.6895 16.1144 12.8549C16.1144 12.5071 16.0608 12.1707 15.9621 11.8553L11.9026 16.0465C12.1956 16.1329 12.5047 16.1817 12.8252 16.1817Z" fill="white"/>
<path d="M9.53491 12.8548C9.53491 13.1884 9.58462 13.5106 9.67552 13.8145L13.7062 9.65331C13.4249 9.57407 13.1303 9.52814 12.8243 9.52814C11.0104 9.52814 9.53491 11.0207 9.53491 12.8548Z" fill="white"/>
<path d="M23.118 2.22637C22.8093 1.92009 22.313 1.92527 22.0101 2.23789L3.20552 21.6529C2.90268 21.9659 2.9078 22.4675 3.2169 22.7737C3.36929 22.9247 3.5675 23 3.76494 23C3.96827 23 4.17118 22.9207 4.32476 22.7622L23.1294 3.34724C23.4326 3.03422 23.4271 2.53226 23.118 2.22637Z" fill="white"/>
</svg>
