<svg width="63" height="63" viewBox="0 0 63 63" fill="none" xmlns="http://www.w3.org/2000/svg">
<circle cx="31.5" cy="31.5" r="31.5" fill="#00A3EA"/>
<path d="M37.413 43.6039L36.9781 45.3713C35.6734 45.8832 34.6312 46.2729 33.8552 46.5408C33.0783 46.8095 32.1755 46.9432 31.147 46.9432C29.5675 46.9432 28.339 46.5585 27.4628 45.7945C26.5865 45.0274 26.1483 44.0554 26.1483 42.8762C26.1483 42.4197 26.1801 41.9502 26.2462 41.4718C26.3129 40.9929 26.4189 40.4535 26.5639 39.8506L28.1945 34.1133C28.3395 33.5639 28.4628 33.0433 28.5616 32.5511C28.6617 32.0619 28.71 31.6118 28.71 31.2066C28.71 30.4739 28.5574 29.9614 28.2536 29.6733C27.9498 29.386 27.3701 29.2401 26.5096 29.2401C26.088 29.2401 25.6548 29.3072 25.2132 29.437C24.7697 29.5673 24.3906 29.6932 24.0723 29.8103L24.5083 28.0415C25.5764 27.6091 26.5974 27.2389 27.5741 26.9316C28.5507 26.6235 29.4735 26.4693 30.3464 26.4693C31.915 26.4693 33.1254 26.8462 33.9754 27.6C34.8254 28.3543 35.2503 29.3322 35.2503 30.5371C35.2503 30.7865 35.2224 31.2257 35.1624 31.8536C35.1038 32.4829 34.9947 33.0594 34.8357 33.5838L33.2122 39.2981C33.0791 39.7571 32.9594 40.2818 32.8554 40.8722C32.748 41.4588 32.6966 41.9069 32.6966 42.2076C32.6966 42.9663 32.8668 43.4844 33.208 43.7598C33.5517 44.0351 34.1436 44.1721 34.9844 44.1721C35.3791 44.1721 35.8283 44.1025 36.3273 43.9658C36.825 43.8291 37.1879 43.709 37.413 43.6039ZM37.8248 19.6136C37.8248 20.6092 37.4474 21.4594 36.6889 22.1586C35.9323 22.8602 35.0207 23.2113 33.9542 23.2113C32.8844 23.2113 31.9705 22.8602 31.2053 22.1586C30.4415 21.4592 30.0588 20.6092 30.0588 19.6136C30.0588 18.6199 30.4415 17.7682 31.2053 17.0602C31.9691 16.3533 32.8847 16 33.9542 16C35.0204 16 35.9323 16.3541 36.6889 17.0602C37.4479 17.7682 37.8248 18.6202 37.8248 19.6136Z" fill="white"/>
</svg>
