<svg width="85" height="85" viewBox="0 0 85 85" fill="none" xmlns="http://www.w3.org/2000/svg">
<circle cx="42.5" cy="42.5" r="42.5" fill="#00A3EA"/>
<path d="M65.6149 33.7699L55.1279 33.7699C54.7411 33.7699 54.429 33.4537 54.434 33.0669L54.5936 20.7696L65.6149 33.7699Z" fill="white" stroke="white" stroke-width="1.38801"/>
<rect x="29.5864" y="36.8021" width="28.9998" height="2.26667" rx="1.13333" fill="white"/>
<rect x="29.5864" y="42.979" width="28.9998" height="2.26667" rx="1.13333" fill="white"/>
<path fill-rule="evenodd" clip-rule="evenodd" d="M52.7334 53.9429C55.7444 53.9429 58.6161 55.6138 60.9074 57.5717C62.2642 58.7313 63.3196 59.9077 63.9611 60.6834C63.3194 61.3627 62.2931 62.3633 60.9842 63.351C58.7133 65.0648 55.8149 66.5714 52.7334 66.5714C49.6521 66.5714 46.7536 65.0648 44.4826 63.351C43.1738 62.3633 42.1475 61.3629 41.5057 60.6835C42.1475 59.9075 43.2028 58.7311 44.5596 57.5717C46.8507 55.6137 49.7224 53.9429 52.7334 53.9429ZM39.2265 60.4481C39.0959 60.6307 39.1036 60.8866 39.2441 61.061C39.4898 61.3656 45.3505 68.5143 52.7334 68.5143C60.1167 68.5143 65.9768 61.3656 66.2225 61.061C66.3635 60.8866 66.3708 60.6312 66.2402 60.4481C65.9945 60.1032 60.133 52 52.7334 52C45.3337 52 39.4727 60.1032 39.2265 60.4481ZM48.8463 60.7428C48.8463 58.6 50.5897 56.8571 52.732 56.8571C54.8744 56.8571 56.6178 58.6 56.6178 60.7428C56.6178 62.8855 54.8744 64.6285 52.732 64.6285C50.5897 64.6285 48.8463 62.8855 48.8463 60.7428Z" fill="white"/>
<path fill-rule="evenodd" clip-rule="evenodd" d="M23.776 20.2667H53.966L65.6878 34.5735V49.527V49.7333H67.9545V49.527V33.7635L55.0392 18H23.776C22.2429 18 21 19.2429 21 20.776V78.278C21 79.8112 22.2429 81.0541 23.776 81.0541H42.5334V78.7874H23.776C23.4947 78.7874 23.2667 78.5593 23.2667 78.278V20.776C23.2667 20.4947 23.4947 20.2667 23.776 20.2667Z" fill="white"/>
<circle cx="42.5" cy="42.5" r="38.5" stroke="#00A3EA" stroke-width="8"/>
</svg>
