<svg width="20" height="20" viewBox="0 0 20 20" fill="none" xmlns="http://www.w3.org/2000/svg">
<path fill-rule="evenodd" clip-rule="evenodd" d="M4.23295 11.0779C4.23295 7.84983 6.84983 5.23295 10.0779 5.23295C11.5055 5.23295 12.8122 5.744 13.8273 6.5938C14.0884 6.81236 14.4772 6.77789 14.6958 6.51682C14.9143 6.25575 14.8798 5.86695 14.6188 5.6484C13.39 4.61976 11.8055 4 10.0779 4C6.16889 4 3 7.16888 3 11.0779C3 14.9869 6.16889 18.1558 10.0779 18.1558C11.9616 18.1558 13.6745 17.4192 14.9422 16.2195C15.1895 15.9854 15.2002 15.5953 14.9662 15.348C14.7322 15.1007 14.342 15.0899 14.0947 15.3239C13.0469 16.3156 11.634 16.9228 10.0779 16.9228C6.84983 16.9228 4.23295 14.306 4.23295 11.0779ZM10.7718 10.4403L15.0471 10.4403L13.774 9.02786C13.5587 8.78901 13.5778 8.42086 13.8166 8.20557C14.0555 7.99027 14.4236 8.00936 14.6389 8.2482L16.815 10.6623C17.0616 10.9359 17.0616 11.3517 16.815 11.6254L14.6389 14.0395C14.4236 14.2783 14.0555 14.2974 13.8166 14.0821C13.5778 13.8668 13.5587 13.4987 13.774 13.2598L15.2044 11.6729L15.1858 11.6732L10.7718 11.6732C10.4314 11.6732 10.1553 11.3972 10.1553 11.0567C10.1553 10.7163 10.4314 10.4403 10.7718 10.4403Z" fill="#454545"/>
</svg>
