<svg width="93" height="93" viewBox="0 0 93 93" fill="none" xmlns="http://www.w3.org/2000/svg">
<circle cx="46.5" cy="46.5" r="46.5" fill="#788A9B"/>
<mask id="path-2-inside-1" fill="white">
<path fill-rule="evenodd" clip-rule="evenodd" d="M28 19.4494C28 18.0966 29.0966 17 30.4494 17H57.0877C57.6871 17 58.2549 17.2688 58.6347 17.7325L68.9775 30.3561C69.2704 30.7136 69.4304 31.1615 69.4304 31.6237V66.1865C69.4304 67.5393 68.3338 68.6359 66.981 68.6359H30.4494C29.0966 68.6359 28 67.5393 28 66.1865V19.4494ZM30.4494 19.3H56.9457L57.0294 19.4022L56.8885 30.2588C56.8796 30.9414 57.4305 31.4994 58.1131 31.4994H66.9408L67.1304 31.7309V66.1865C67.1304 66.269 67.0635 66.3359 66.981 66.3359H30.4494C30.3669 66.3359 30.3 66.269 30.3 66.1865V19.4494C30.3 19.3669 30.3669 19.3 30.4494 19.3Z"/>
</mask>
<path fill-rule="evenodd" clip-rule="evenodd" d="M28 19.4494C28 18.0966 29.0966 17 30.4494 17H57.0877C57.6871 17 58.2549 17.2688 58.6347 17.7325L68.9775 30.3561C69.2704 30.7136 69.4304 31.1615 69.4304 31.6237V66.1865C69.4304 67.5393 68.3338 68.6359 66.981 68.6359H30.4494C29.0966 68.6359 28 67.5393 28 66.1865V19.4494ZM30.4494 19.3H56.9457L57.0294 19.4022L56.8885 30.2588C56.8796 30.9414 57.4305 31.4994 58.1131 31.4994H66.9408L67.1304 31.7309V66.1865C67.1304 66.269 67.0635 66.3359 66.981 66.3359H30.4494C30.3669 66.3359 30.3 66.269 30.3 66.1865V19.4494C30.3 19.3669 30.3669 19.3 30.4494 19.3Z" fill="white"/>
<path d="M56.9457 19.3L57.893 18.5238L57.5255 18.0753H56.9457V19.3ZM57.0294 19.4022L58.254 19.4181L58.2598 18.9715L57.9768 18.6261L57.0294 19.4022ZM56.8885 30.2588L58.1131 30.2747L58.1131 30.2747L56.8885 30.2588ZM66.9408 31.4994L67.8881 30.7232L67.5206 30.2747H66.9408V31.4994ZM67.1304 31.7309H68.3551V31.2932L68.0778 30.9547L67.1304 31.7309ZM58.6347 17.7325L59.5821 16.9563L59.5821 16.9563L58.6347 17.7325ZM68.9775 30.3561L68.0301 31.1323L68.0301 31.1323L68.9775 30.3561ZM56.9457 18.0753H30.4494V20.5247H56.9457V18.0753ZM57.9768 18.6261L57.893 18.5238L55.9983 20.0762L56.0821 20.1784L57.9768 18.6261ZM55.8048 19.3863L55.6639 30.2429L58.1131 30.2747L58.254 19.4181L55.8048 19.3863ZM55.6639 30.2429C55.6462 31.608 56.7479 32.7241 58.1131 32.7241V30.2747L58.1131 30.2747L55.6639 30.2429ZM58.1131 32.7241H66.9408V30.2747H58.1131V32.7241ZM68.0778 30.9547L67.8881 30.7232L65.9934 32.2756L66.1831 32.507L68.0778 30.9547ZM68.3551 66.1865V31.7309H65.9057V66.1865H68.3551ZM66.981 67.5606C67.7399 67.5606 68.3551 66.9454 68.3551 66.1865H65.9057C65.9057 65.5926 66.3871 65.1112 66.981 65.1112V67.5606ZM30.4494 67.5606H66.981V65.1112H30.4494V67.5606ZM29.0753 66.1865C29.0753 66.9454 29.6905 67.5606 30.4494 67.5606V65.1112C31.0433 65.1112 31.5247 65.5926 31.5247 66.1865H29.0753ZM29.0753 19.4494V66.1865H31.5247V19.4494H29.0753ZM30.4494 18.0753C29.6905 18.0753 29.0753 18.6905 29.0753 19.4494H31.5247C31.5247 20.0433 31.0433 20.5247 30.4494 20.5247V18.0753ZM30.4494 15.7753C28.4203 15.7753 26.7753 17.4202 26.7753 19.4494H29.2247C29.2247 18.773 29.773 18.2247 30.4494 18.2247V15.7753ZM57.0877 15.7753H30.4494V18.2247H57.0877V15.7753ZM59.5821 16.9563C58.9696 16.2087 58.0541 15.7753 57.0877 15.7753V18.2247C57.32 18.2247 57.5401 18.3289 57.6874 18.5087L59.5821 16.9563ZM69.9248 29.58L59.5821 16.9563L57.6874 18.5087L68.0301 31.1323L69.9248 29.58ZM70.6551 31.6237C70.6551 30.8785 70.3971 30.1564 69.9248 29.58L68.0301 31.1323C68.1437 31.2709 68.2057 31.4445 68.2057 31.6237H70.6551ZM70.6551 66.1865V31.6237H68.2057V66.1865H70.6551ZM66.981 69.8606C69.0102 69.8606 70.6551 68.2157 70.6551 66.1865H68.2057C68.2057 66.8629 67.6574 67.4112 66.981 67.4112V69.8606ZM30.4494 69.8606H66.981V67.4112H30.4494V69.8606ZM26.7753 66.1865C26.7753 68.2157 28.4203 69.8606 30.4494 69.8606V67.4112C29.773 67.4112 29.2247 66.8629 29.2247 66.1865H26.7753ZM26.7753 19.4494V66.1865H29.2247V19.4494H26.7753Z" fill="white" mask="url(#path-2-inside-1)"/>
<rect x="35.5757" y="52.5625" width="25.5881" height="2" rx="1" fill="white"/>
<rect x="36" y="47" width="14" height="3" transform="rotate(-90 36 47)" fill="white"/>
<rect x="40" y="47" width="9" height="3" transform="rotate(-90 40 47)" fill="white"/>
<rect x="44" y="47" width="6" height="3" transform="rotate(-90 44 47)" fill="white"/>
<rect x="35.5757" y="58.0127" width="25.5881" height="2" rx="1" fill="white"/>
<path d="M53.19 34.9047L57.1036 40.9925L53.5646 46.301C51.4496 45.2287 50 43.0336 50 40.5C50 38.1189 51.2803 36.0369 53.19 34.9047Z" fill="white"/>
<path d="M54.5774 34.289L58.6309 40.5944C58.7922 40.8453 58.7895 41.1679 58.6241 41.416L55.015 46.8296C55.4919 46.9411 55.9891 47 56.5 47C60.0899 47 63 44.0899 63 40.5C63 36.9101 60.0899 34 56.5 34C55.8307 34 55.185 34.1012 54.5774 34.289Z" fill="white"/>
</svg>
