<svg width="85" height="85" viewBox="0 0 85 85" fill="none" xmlns="http://www.w3.org/2000/svg">
<g opacity="0.85">
<circle cx="42.5" cy="42.5" r="42.5" fill="#788A9B"/>
<mask id="path-2-inside-1" fill="white">
<path fill-rule="evenodd" clip-rule="evenodd" d="M25.5914 17.7763C25.5914 16.5399 26.5937 15.5376 27.8301 15.5376H52.177C52.7248 15.5376 53.2437 15.7833 53.5909 16.2071L63.044 27.7449C63.3117 28.0716 63.4579 28.481 63.4579 28.9033V60.493C63.4579 61.7294 62.4556 62.7318 61.2192 62.7318H27.8301C26.5937 62.7318 25.5914 61.7294 25.5914 60.493V17.7763ZM27.8301 17.6398H52.0471L52.1237 17.7332L51.9949 27.6559C51.9868 28.2797 52.4903 28.7898 53.1142 28.7898H61.1825L61.3558 29.0013V60.493C61.3558 60.5685 61.2946 60.6296 61.2192 60.6296H27.8301C27.7547 60.6296 27.6936 60.5685 27.6936 60.493V17.7763C27.6936 17.7009 27.7547 17.6398 27.8301 17.6398Z"/>
</mask>
<path fill-rule="evenodd" clip-rule="evenodd" d="M25.5914 17.7763C25.5914 16.5399 26.5937 15.5376 27.8301 15.5376H52.177C52.7248 15.5376 53.2437 15.7833 53.5909 16.2071L63.044 27.7449C63.3117 28.0716 63.4579 28.481 63.4579 28.9033V60.493C63.4579 61.7294 62.4556 62.7318 61.2192 62.7318H27.8301C26.5937 62.7318 25.5914 61.7294 25.5914 60.493V17.7763ZM27.8301 17.6398H52.0471L52.1237 17.7332L51.9949 27.6559C51.9868 28.2797 52.4903 28.7898 53.1142 28.7898H61.1825L61.3558 29.0013V60.493C61.3558 60.5685 61.2946 60.6296 61.2192 60.6296H27.8301C27.7547 60.6296 27.6936 60.5685 27.6936 60.493V17.7763C27.6936 17.7009 27.7547 17.6398 27.8301 17.6398Z" fill="white"/>
<path d="M52.0471 17.6398L52.9945 16.8636L52.627 16.4151H52.0471V17.6398ZM52.1237 17.7332L53.3483 17.7491L53.3541 17.3025L53.071 16.957L52.1237 17.7332ZM51.9949 27.6559L53.2195 27.6718V27.6718L51.9949 27.6559ZM61.1825 28.7898L62.1298 28.0136L61.7623 27.5651H61.1825V28.7898ZM61.3558 29.0013H62.5805V28.5637L62.3031 28.2252L61.3558 29.0013ZM53.5909 16.2071L54.5383 15.4309L54.5383 15.4309L53.5909 16.2071ZM63.044 27.7449L62.0966 28.521L63.044 27.7449ZM52.0471 16.4151H27.8301V18.8645H52.0471V16.4151ZM53.071 16.957L52.9945 16.8636L51.0998 18.416L51.1763 18.5094L53.071 16.957ZM50.8991 17.7173L50.7703 27.64L53.2195 27.6718L53.3483 17.7491L50.8991 17.7173ZM50.7703 27.64C50.7533 28.9464 51.8077 30.0145 53.1142 30.0145V27.5651C53.1729 27.5651 53.2203 27.6131 53.2195 27.6718L50.7703 27.64ZM53.1142 30.0145H61.1825V27.5651H53.1142V30.0145ZM62.3031 28.2252L62.1298 28.0136L60.2351 29.5659L60.4084 29.7775L62.3031 28.2252ZM62.5805 60.493V29.0013H60.1311V60.493H62.5805ZM61.2192 61.8543C61.971 61.8543 62.5805 61.2449 62.5805 60.493H60.1311C60.1311 59.8921 60.6183 59.4049 61.2192 59.4049V61.8543ZM27.8301 61.8543H61.2192V59.4049H27.8301V61.8543ZM26.4689 60.493C26.4689 61.2448 27.0783 61.8543 27.8301 61.8543V59.4049C28.4311 59.4049 28.9183 59.8921 28.9183 60.493H26.4689ZM26.4689 17.7763V60.493H28.9183V17.7763H26.4689ZM27.8301 16.4151C27.0783 16.4151 26.4689 17.0245 26.4689 17.7763H28.9183C28.9183 18.3773 28.4311 18.8645 27.8301 18.8645V16.4151ZM27.8301 14.3129C25.9174 14.3129 24.3667 15.8635 24.3667 17.7763H26.8161C26.8161 17.2163 27.2701 16.7623 27.8301 16.7623V14.3129ZM52.177 14.3129H27.8301V16.7623H52.177V14.3129ZM54.5383 15.4309C53.9585 14.7232 53.0918 14.3129 52.177 14.3129V16.7623C52.3577 16.7623 52.529 16.8434 52.6436 16.9833L54.5383 15.4309ZM63.9913 26.9687L54.5383 15.4309L52.6436 16.9833L62.0966 28.521L63.9913 26.9687ZM64.6826 28.9033C64.6826 28.198 64.4384 27.5143 63.9913 26.9687L62.0966 28.521C62.185 28.6289 62.2332 28.764 62.2332 28.9033H64.6826ZM64.6826 60.493V28.9033H62.2332V60.493H64.6826ZM61.2192 63.9565C63.132 63.9565 64.6826 62.4058 64.6826 60.493H62.2332C62.2332 61.0531 61.7792 61.507 61.2192 61.507V63.9565ZM27.8301 63.9565H61.2192V61.507H27.8301V63.9565ZM24.3667 60.493C24.3667 62.4058 25.9173 63.9565 27.8301 63.9565V61.507C27.2701 61.507 26.8161 61.0531 26.8161 60.493H24.3667ZM24.3667 17.7763V60.493H26.8161V17.7763H24.3667Z" fill="white" mask="url(#path-2-inside-1)"/>
<rect x="32.5154" y="48.041" width="23.3869" height="1.82796" rx="0.913979" fill="white"/>
<rect x="32.9032" y="42.957" width="12.7957" height="2.74194" transform="rotate(-90 32.9032 42.957)" fill="white"/>
<rect x="36.5592" y="42.957" width="8.22581" height="2.74193" transform="rotate(-90 36.5592 42.957)" fill="white"/>
<rect x="40.2151" y="42.957" width="5.48387" height="2.74194" transform="rotate(-90 40.2151 42.957)" fill="white"/>
<rect x="32.5154" y="53.0223" width="23.3869" height="1.82796" rx="0.913979" fill="white"/>
<path d="M48.6146 31.9021L52.1915 37.4663L48.957 42.3181C47.0239 41.338 45.699 39.3318 45.699 37.0161C45.699 34.8399 46.8691 32.9369 48.6146 31.9021Z" fill="white"/>
<path d="M49.8826 31.3394L53.5874 37.1024C53.7348 37.3317 53.7324 37.6265 53.5812 37.8533L50.2826 42.8012C50.7185 42.9031 51.1729 42.957 51.6398 42.957C54.9209 42.957 57.5807 40.2972 57.5807 37.0161C57.5807 33.7351 54.9209 31.0753 51.6398 31.0753C51.0281 31.0753 50.438 31.1677 49.8826 31.3394Z" fill="white"/>
</g>
</svg>
