<svg width="25" height="25" viewBox="0 0 25 25" fill="none" xmlns="http://www.w3.org/2000/svg">
<path fill-rule="evenodd" clip-rule="evenodd" d="M21.4326 5.90625H3.96687L12.4103 12.661C12.5795 12.7964 12.8199 12.7964 12.9891 12.661L21.4326 5.90625ZM3 7.694V19.1801C3 19.6918 3.41479 20.1066 3.92647 20.1066H21.4739C21.9856 20.1066 22.4004 19.6918 22.4004 19.1801V13.0064V7.69325L14.2385 14.2228C13.3389 14.9425 12.0606 14.9425 11.161 14.2228L3 7.694ZM1 6.83272C1 5.21647 2.31022 3.90625 3.92647 3.90625H21.4739C23.0902 3.90625 24.4004 5.21647 24.4004 6.83272V13.0064V19.1801C24.4004 20.7963 23.0902 22.1066 21.4739 22.1066H3.92647C2.31022 22.1066 1 20.7963 1 19.1801V6.83272Z" fill="#5C6466"/>
</svg>
