<svg width="85" height="85" viewBox="0 0 85 85" fill="none" xmlns="http://www.w3.org/2000/svg">
<circle cx="42.5" cy="42.5" r="42.5" fill="#00A3EA"/>
<path d="M56.2825 29.7699H49.3063V27.4445C49.3063 26.1656 48.2599 25.1191 46.9809 25.1191H37.6794C36.4004 25.1191 35.354 26.1656 35.354 27.4445V29.7699H28.3778C25.8083 29.7699 23.7271 31.8511 23.7271 34.4207V55.3492C23.7271 57.9187 25.8083 59.9999 28.3778 59.9999H56.2825C58.852 59.9999 60.9332 57.9187 60.9332 55.3492V34.4207C60.9332 31.8511 58.852 29.7699 56.2825 29.7699ZM37.6794 28.6072C37.6794 27.9677 38.2026 27.4445 38.8421 27.4445H45.8182C46.4577 27.4445 46.9809 27.9677 46.9809 28.6072V29.7699H37.6794V28.6072ZM58.6079 55.3492C58.6079 56.6281 57.5614 57.6746 56.2825 57.6746H28.3778C27.0989 57.6746 26.0524 56.6281 26.0524 55.3492V42.5595H37.8421C37.7491 42.9316 37.6794 43.3153 37.6794 43.7222C37.6794 46.2918 39.7606 48.373 42.3301 48.373C44.8997 48.373 46.9809 46.2918 46.9809 43.7222C46.9809 43.3153 46.9112 42.9316 46.8181 42.5595H58.6079V55.3492ZM40.0048 43.7222C40.0048 43.292 40.1327 42.9083 40.3303 42.5595H44.3416C44.5393 42.9083 44.6672 43.292 44.6672 43.7222C44.6672 45.0012 43.6207 46.0476 42.3418 46.0476C41.0628 46.0476 40.0048 45.0128 40.0048 43.7222ZM58.6079 40.2342H26.0524V34.4207C26.0524 33.1417 27.0989 32.0953 28.3778 32.0953H56.2825C57.5614 32.0953 58.6079 33.1417 58.6079 34.4207V40.2342Z" fill="white"/>
</svg>
