<svg width="36" height="47" viewBox="0 0 36 47" fill="none" xmlns="http://www.w3.org/2000/svg">
<path d="M35.2209 12.7486L24.0209 0.487671C23.7369 0.177174 23.3379 0 22.9189 0H4.609C2.067 0 0 2.09068 0 4.66164V42.2704C0 44.8413 2.068 46.9318 4.609 46.9318H31.009C33.551 46.9318 35.6179 44.8403 35.6179 42.2704V13.7792C35.6199 13.3969 35.4769 13.0298 35.2209 12.7486ZM31.2349 12.856H23.629V4.52806L31.2349 12.856ZM32.6199 42.2704C32.6199 43.1675 31.8979 43.8976 31.0109 43.8976H4.61095C3.72395 43.8976 3.00195 43.1675 3.00195 42.2704V4.66164C3.00195 3.76454 3.72395 3.03418 4.61095 3.03418H22.213V13.5721C22.213 13.9685 22.53 14.2879 22.921 14.2879H32.5448L32.6209 14.3709V42.2704H32.6199Z" fill="#586063"/>
</svg>
