<svg width="35" height="64" viewBox="0 0 35 64" fill="none" xmlns="http://www.w3.org/2000/svg">
<g clip-path="url(#clip0)">
<path fill-rule="evenodd" clip-rule="evenodd" d="M0.869231 28.7852L0.861239 28.7927C0.297721 29.322 -1.31218e-06 30.0192 -1.34288e-06 30.7214C-1.37357e-06 31.4236 0.297709 32.1208 0.861239 32.6501L0.893145 32.6801L29.7881 63.1813C30.9906 64.2813 32.9501 64.2724 34.1403 63.1545C35.287 62.0775 35.2859 60.3723 34.141 59.2983L34.105 59.2645L7.38463 30.6702L34.1306 4.71027L34.14 4.70153C35.2853 3.62713 35.2853 1.91989 34.14 0.84549C32.9426 -0.279138 30.9659 -0.282043 29.7655 0.838086L0.869231 28.7852Z" fill="#8D9BA0"/>
</g>
<defs>
<clipPath id="clip0">
<rect width="35" height="63.9997" fill="white"/>
</clipPath>
</defs>
</svg>
