<svg width="25" height="25" viewBox="0 0 25 25" fill="none" xmlns="http://www.w3.org/2000/svg">
<path d="M23.2196 12.0689C22.6988 11.5783 22.0745 11.3331 21.3465 11.3331H20.4621V7.99982C20.4621 7.65271 20.3696 7.27057 20.1852 6.8541C20.001 6.43744 19.78 6.10761 19.522 5.86453L17.4208 3.88531C17.1628 3.64246 16.8127 3.43404 16.3706 3.26032C15.9282 3.08679 15.523 3 15.1542 3H5.86552C5.4969 3 5.18352 3.12145 4.92548 3.36453C4.66758 3.60748 4.53847 3.90264 4.53847 4.24993V11.3331H3.65391C2.92592 11.3331 2.30163 11.5785 1.7809 12.0689C1.26027 12.5593 1 13.1474 1 13.8333V19.2501C1 19.3631 1.04381 19.4603 1.1313 19.5431C1.21888 19.6254 1.32258 19.6666 1.44225 19.6666H4.53847V21.7499C4.53847 22.0973 4.66744 22.3924 4.92548 22.6354C5.18352 22.8783 5.4969 23 5.86552 23H19.1347C19.5032 23 19.817 22.8783 20.0748 22.6354C20.3328 22.3923 20.4618 22.0973 20.4618 21.7499V19.6666H23.558C23.6776 19.6666 23.7813 19.6254 23.8688 19.5431C23.9563 19.4603 24 19.3631 24 19.2501V13.8333C24.0002 13.1474 23.74 12.5593 23.2196 12.0689ZM18.6925 21.3333H6.30782V18.0001H18.6925V21.3333ZM18.6925 12.9999H6.30782V4.66668H15.1542V6.74993C15.1542 7.09718 15.2834 7.3922 15.541 7.63533C15.799 7.87841 16.1122 7.99986 16.4811 7.99986H18.6925V12.9999ZM21.9685 14.4191C21.7935 14.584 21.5861 14.6667 21.3465 14.6667C21.1069 14.6667 20.8995 14.584 20.7245 14.4191C20.5496 14.2545 20.4621 14.0589 20.4621 13.8332C20.4621 13.6075 20.5496 13.4122 20.7245 13.2473C20.8995 13.0824 21.1069 12.9999 21.3465 12.9999C21.5861 12.9999 21.7935 13.0824 21.9685 13.2473C22.1434 13.4121 22.2312 13.6075 22.2312 13.8332C22.2312 14.0589 22.1436 14.2545 21.9685 14.4191Z" fill="#00A3EA"/>
</svg>
