<svg width="93" height="93" viewBox="0 0 93 93" fill="none" xmlns="http://www.w3.org/2000/svg">
<circle cx="46.5" cy="46.5" r="46.5" fill="#0599DA"/>
<path fill-rule="evenodd" clip-rule="evenodd" d="M62.1 24.9158L37.9996 32.6H62.1V24.9158ZM64.9 32.7204V24.3685C64.9 22.7435 63.3191 21.5883 61.7709 22.0819L27.6 32.977V61C27.6 62.8778 29.1222 64.4 31 64.4H64C65.8777 64.4 67.4 62.8778 67.4 61V36C67.4 34.4338 66.341 33.115 64.9 32.7204ZM30.4 35.4H64C64.3313 35.4 64.6 35.6686 64.6 36V44.6H59C57.9506 44.6 57.1 45.4507 57.1 46.5V52C57.1 53.0494 57.9506 53.9 59 53.9H64.6V61C64.6 61.3314 64.3313 61.6 64 61.6H31C30.6686 61.6 30.4 61.3314 30.4 61V35.4ZM64.6 51.1V47.4H59.9V51.1H64.6Z" fill="white"/>
</svg>
