<svg width="25" height="25" viewBox="0 0 25 25" fill="none" xmlns="http://www.w3.org/2000/svg">
<path fill-rule="evenodd" clip-rule="evenodd" d="M9.05925 23C9.29125 23 9.519 22.9032 9.68606 22.7211L13.6293 18.4208H15.7365C19.7413 18.4208 23 14.7377 23 10.2107C22.9996 5.6832 20 2 15.7361 2H9.26349C5.25874 2 2 5.6832 2 10.2107C2 14.3481 4.65928 17.7491 8.19147 18.3306V22.094C8.19147 22.464 8.40721 22.7974 8.73578 22.9348C8.84046 22.979 8.9503 23 9.05925 23ZM15.7365 16.4208C18.4134 16.4208 20.9999 13.8705 21 10.2108C20.8333 8.14057 20 4 16 4H9.26349C6.5866 4 4 6.5504 4 10.2107C4 13.5442 6.11368 15.9616 8.51635 16.3571L10 16.4208L10.1915 19.2106L12.7497 16.4208H15.7365Z" fill="#5C6466"/>
</svg>
