<svg width="107" height="107" viewBox="0 0 121 121" fill="none" xmlns="http://www.w3.org/2000/svg">
<g filter="url(#filter0_d)">
<circle cx="60.5" cy="55.5" r="53.5" fill="#0599DA"/>
<circle cx="60.5" cy="55.5" r="54.5" stroke="white" stroke-width="2"/>
</g>
<path fill-rule="evenodd" clip-rule="evenodd" d="M72.9816 24.2554L50.6664 31.3704H72.9816V24.2554ZM75.5742 31.4819V23.7486C75.5742 22.244 74.1103 21.1743 72.6769 21.6314L41.0371 31.7194V57.6667C41.0371 59.4054 42.4466 60.8149 44.1853 60.8149H74.7408C76.4795 60.8149 77.889 59.4054 77.889 57.6667V34.5186C77.889 33.0684 76.9084 31.8472 75.5742 31.4819ZM43.6297 33.963H74.7408C75.0476 33.963 75.2964 34.2117 75.2964 34.5186V42.4815H70.1112C69.1396 42.4815 68.3519 43.2692 68.3519 44.2408V49.3334C68.3519 50.305 69.1396 51.0926 70.1112 51.0926H75.2964V57.6667C75.2964 57.9735 75.0476 58.2223 74.7408 58.2223H44.1853C43.8784 58.2223 43.6297 57.9735 43.6297 57.6667V33.963ZM75.2964 48.5V45.0741H70.9445V48.5H75.2964Z" fill="white"/>
<defs>
<filter id="filter0_d" x="0" y="0" width="121" height="121" filterUnits="userSpaceOnUse" color-interpolation-filters="sRGB">
<feFlood flood-opacity="0" result="BackgroundImageFix"/>
<feColorMatrix in="SourceAlpha" type="matrix" values="0 0 0 0 0 0 0 0 0 0 0 0 0 0 0 0 0 0 127 0"/>
<feOffset dy="5"/>
<feGaussianBlur stdDeviation="2.5"/>
<feColorMatrix type="matrix" values="0 0 0 0 0 0 0 0 0 0 0 0 0 0 0 0 0 0 0.15 0"/>
<feBlend mode="normal" in2="BackgroundImageFix" result="effect1_dropShadow"/>
<feBlend mode="normal" in="SourceGraphic" in2="effect1_dropShadow" result="shape"/>
</filter>
</defs>
</svg>
