<svg width="85" height="85" viewBox="0 0 85 85" fill="none" xmlns="http://www.w3.org/2000/svg">
<circle cx="42.5" cy="42.5" r="42.5" fill="#0599DA"/>
<path fill-rule="evenodd" clip-rule="evenodd" d="M56.758 22.7725L34.7308 29.7957H56.758V22.7725ZM59.3172 29.9057V22.2722C59.3172 20.7871 57.8723 19.7312 56.4573 20.1824L25.2258 30.1402V55.7527C25.2258 57.4689 26.6171 58.8602 28.3333 58.8602H58.4946C60.2108 58.8602 61.6021 57.4689 61.6021 55.7527V32.9032C61.6021 31.4718 60.6342 30.2663 59.3172 29.9057ZM27.7849 32.3548H58.4946C58.7975 32.3548 59.043 32.6004 59.043 32.9032V40.7635H53.9247C52.9656 40.7635 52.1881 41.5409 52.1881 42.5V47.5269C52.1881 48.486 52.9656 49.2635 53.9247 49.2635H59.043V55.7527C59.043 56.0556 58.7975 56.3011 58.4946 56.3011H28.3333C28.0304 56.3011 27.7849 56.0556 27.7849 55.7527V32.3548ZM59.043 46.7043V43.3226H54.7473V46.7043H59.043Z" fill="white"/>
</svg>
