<svg width="193" height="213" viewBox="0 0 193 213" fill="none" xmlns="http://www.w3.org/2000/svg">
<path d="M95.163 -2.53989e-05L77.1099 18.0531L95.163 36.1062L113.216 18.0531L95.163 -2.53989e-05Z" fill="#068DC8"/>
<path d="M73.6552 27.0229L60.0752 40.603L73.6552 54.183L87.2352 40.603L73.6552 27.0229Z" fill="#6F2A80"/>
<path d="M118.615 27.0149L105.035 40.595L118.615 54.175L132.195 40.595L118.615 27.0149Z" fill="#95C53D"/>
<path d="M50.9551 52.0315L39.2769 63.7098L50.9551 75.3881L62.6334 63.7098L50.9551 52.0315Z" fill="#CB1A71"/>
<path d="M27.5602 78.7904L19.98 86.3706L27.5602 93.9508L35.1403 86.3706L27.5602 78.7904Z" fill="#797979"/>
<path d="M5.62501 103.76L0.241211 109.143L5.62501 114.527L11.0088 109.143L5.62501 103.76Z" fill="#8E8E8E"/>
<path d="M142.054 52.0323L130.375 63.7106L142.054 75.3889L153.732 63.7106L142.054 52.0323Z" fill="#626363"/>
<path d="M164.688 79.4982L157.107 87.0784L164.688 94.6585L172.268 87.0784L164.688 79.4982Z" fill="#797979"/>
<path d="M187.488 103.656L182.104 109.04L187.488 114.423L192.872 109.04L187.488 103.656Z" fill="#8E8E8E"/>
<path d="M97.4281 43.5663C98.6833 43.5663 99.7009 42.5487 99.7009 41.2935C99.7009 40.0383 98.6833 39.0207 97.4281 39.0207C96.1729 39.0207 95.1553 40.0383 95.1553 41.2935C95.1553 42.5487 96.1729 43.5663 97.4281 43.5663Z" fill="#D0D0D0"/>
<path d="M97.4263 68.2256C100.104 68.2256 102.275 66.0548 102.275 63.3769C102.275 60.6991 100.104 58.5283 97.4263 58.5283C94.7485 58.5283 92.5776 60.6991 92.5776 63.3769C92.5776 66.0548 94.7485 68.2256 97.4263 68.2256Z" fill="#D0D0D0"/>
<path d="M97.4295 92.6213C100.923 92.6213 103.755 89.7891 103.755 86.2953C103.755 82.8016 100.923 79.9694 97.4295 79.9694C93.9358 79.9694 91.1035 82.8016 91.1035 86.2953C91.1035 89.7891 93.9358 92.6213 97.4295 92.6213Z" fill="#D0D0D0"/>
<path d="M73.6777 91.3332C76.4602 91.3332 78.7158 89.0776 78.7158 86.2951C78.7158 83.5127 76.4602 81.2571 73.6777 81.2571C70.8953 81.2571 68.6396 83.5127 68.6396 86.2951C68.6396 89.0776 70.8953 91.3332 73.6777 91.3332Z" fill="#D0D0D0"/>
<path d="M119.892 90.9538C122.674 90.9538 124.93 88.6982 124.93 85.9157C124.93 83.1333 122.674 80.8777 119.892 80.8777C117.109 80.8777 114.854 83.1333 114.854 85.9157C114.854 88.6982 117.109 90.9538 119.892 90.9538Z" fill="#D0D0D0"/>
<path d="M73.6761 115.614C77.3163 115.614 80.2672 112.663 80.2672 109.023C80.2672 105.383 77.3163 102.432 73.6761 102.432C70.0359 102.432 67.085 105.383 67.085 109.023C67.085 112.663 70.0359 115.614 73.6761 115.614Z" fill="#D0D0D0"/>
<path d="M119.889 115.614C123.53 115.614 126.481 112.663 126.481 109.023C126.481 105.383 123.53 102.432 119.889 102.432C116.249 102.432 113.298 105.383 113.298 109.023C113.298 112.663 116.249 115.614 119.889 115.614Z" fill="#D0D0D0"/>
<path d="M50.9468 114.137C53.7711 114.137 56.0606 111.847 56.0606 109.023C56.0606 106.199 53.7711 103.909 50.9468 103.909C48.1225 103.909 45.833 106.199 45.833 109.023C45.833 111.847 48.1225 114.137 50.9468 114.137Z" fill="#D0D0D0"/>
<path d="M143.112 114.137C145.936 114.137 148.226 111.847 148.226 109.023C148.226 106.199 145.936 103.909 143.112 103.909C140.288 103.909 137.998 106.199 137.998 109.023C137.998 111.847 140.288 114.137 143.112 114.137Z" fill="#D0D0D0"/>
<path d="M97.4275 116.712C101.674 116.712 105.117 113.27 105.117 109.023C105.117 104.776 101.674 101.333 97.4275 101.333C93.1806 101.333 89.7378 104.776 89.7378 109.023C89.7378 113.27 93.1806 116.712 97.4275 116.712Z" fill="#D0D0D0"/>
<path d="M73.6781 65.6507C74.9333 65.6507 75.9509 64.6331 75.9509 63.3779C75.9509 62.1227 74.9333 61.1051 73.6781 61.1051C72.4228 61.1051 71.4053 62.1227 71.4053 63.3779C71.4053 64.6331 72.4228 65.6507 73.6781 65.6507Z" fill="#D0D0D0"/>
<path d="M50.9491 88.5682C52.2043 88.5682 53.2219 87.5506 53.2219 86.2954C53.2219 85.0402 52.2043 84.0226 50.9491 84.0226C49.6938 84.0226 48.6763 85.0402 48.6763 86.2954C48.6763 87.5506 49.6938 88.5682 50.9491 88.5682Z" fill="#D0D0D0"/>
<path d="M27.577 111.41C28.8322 111.41 29.8498 110.392 29.8498 109.137C29.8498 107.881 28.8322 106.864 27.577 106.864C26.3218 106.864 25.3042 107.881 25.3042 109.137C25.3042 110.392 26.3218 111.41 27.577 111.41Z" fill="#D0D0D0"/>
<path d="M119.89 65.6507C121.146 65.6507 122.163 64.6331 122.163 63.3779C122.163 62.1227 121.146 61.1051 119.89 61.1051C118.635 61.1051 117.618 62.1227 117.618 63.3779C117.618 64.6331 118.635 65.6507 119.89 65.6507Z" fill="#D0D0D0"/>
<path d="M143.11 88.6441C144.365 88.6441 145.383 87.6266 145.383 86.3713C145.383 85.1161 144.365 84.0985 143.11 84.0985C141.854 84.0985 140.837 85.1161 140.837 86.3713C140.837 87.6266 141.854 88.6441 143.11 88.6441Z" fill="#D0D0D0"/>
<path d="M165.839 111.41C167.094 111.41 168.112 110.392 168.112 109.137C168.112 107.881 167.094 106.864 165.839 106.864C164.583 106.864 163.566 107.881 163.566 109.137C163.566 110.392 164.583 111.41 165.839 111.41Z" fill="#D0D0D0"/>
<path d="M31.4026 174.934H3.93954C1.32581 174.934 0 172.965 0 170.503V138.57C0 136.107 1.36369 134.138 3.93954 134.138H26.5161C31.4026 134.138 35.3422 137.85 35.3422 142.471V170.54C35.3422 172.965 34.0164 174.934 31.4026 174.934ZM23.5615 148.002C23.5615 146.487 22.1978 145.236 20.6068 145.236H11.7807V163.873H23.5615V148.002Z" fill="#626363"/>
<path d="M51.3271 161.071H48.9785C46.3648 161.071 44.2814 159.821 44.2814 157.359V146.184C44.2814 144.366 43.789 143.874 42.9177 142.396C41.3267 139.858 42.1601 137.472 44.092 136.222L46.0239 134.972C48.1452 133.532 50.9862 134.101 52.5772 136.07C55.1909 139.328 56.0242 141.714 56.0242 145.01V157.359C56.0621 159.821 53.9408 161.071 51.3271 161.071Z" fill="#626363"/>
<path d="M96.253 174.934H65.8731C63.2594 174.934 61.9336 172.965 61.9336 170.503V168.268C61.9336 165.805 63.2973 163.836 65.8731 163.836H82.5404V148.002C82.5404 146.487 81.1767 145.236 79.5857 145.236H65.8731C63.2594 145.236 61.9336 143.267 61.9336 140.804V138.57C61.9336 136.107 63.2973 134.138 65.8731 134.138H85.495C90.3816 134.138 94.3211 137.85 94.3211 142.471V163.873H96.253C98.8667 163.873 100.193 165.843 100.193 168.305V170.54C100.23 172.965 98.8667 174.934 96.253 174.934Z" fill="#626363"/>
<path d="M143.224 163.836C140.951 170.351 134.208 174.935 126.557 174.935H111.139C108.526 174.935 106.745 173.42 106.518 170.957L102.995 138.532C102.73 136.07 104.662 134.555 107.276 134.327L109.624 134.1C112.162 133.797 114.435 134.895 114.662 137.358L115.912 147.737C115.988 147.661 117.276 147.737 117.276 147.737C118.374 147.737 119.056 146.487 119.397 145.502L122.92 136.221C123.753 133.835 126.443 133.456 128.829 134.327L131.026 135.198C133.451 136.145 134.739 138.039 133.792 140.35L130.155 150.426C128.716 154.404 125.269 158.04 120.155 158.04H117.124L117.541 163.836H127.125C129.322 163.836 131.405 162.245 132.276 159.707L140.269 136.411C141.027 134.1 143.565 133.57 145.989 134.365L148.262 135.161C150.686 135.956 152.126 137.774 151.368 140.161L143.224 163.836Z" fill="#626363"/>
<path d="M188.265 174.934H185.916C183.303 174.934 181.219 173.684 181.219 171.222V151.259C181.219 147.926 178.605 145.236 175.31 145.236H169.401V171.222C169.401 173.684 167.279 174.934 164.703 174.934H162.355C159.741 174.934 157.658 173.684 157.658 171.222V138.57C157.658 136.107 159.779 134.138 162.355 134.138H178.265C186.409 134.138 193 140.312 193 148.002V171.222C192.962 173.684 190.841 174.934 188.265 174.934Z" fill="#626363"/>
<path d="M4.43083 212.55H4.12779C3.25655 212.55 2.57471 212.019 2.57471 211.337V190.162C2.57471 189.481 3.25655 188.95 4.12779 188.95H4.43083C5.30208 188.95 5.98392 189.481 5.98392 190.162V211.375C5.98392 212.019 5.30208 212.55 4.43083 212.55Z" fill="#626363"/>
<path d="M27.0841 191.488L20.152 206.527C19.849 207.133 18.9777 207.474 18.1444 207.246L17.8413 207.171C17.0458 206.943 16.6292 206.261 16.9322 205.617L23.4097 191.564H11.6669C10.7956 191.564 10.1138 191.034 10.1138 190.352V184.897C10.1138 184.215 10.7956 183.685 11.6669 183.685H11.9699C12.8411 183.685 13.523 184.215 13.523 184.897V188.95H25.6067C26.478 188.95 27.1598 189.48 27.1598 190.162V190.958C27.1598 191.071 27.2356 191.223 27.0841 191.488Z" fill="#626363"/>
<path d="M33.7485 199.443H33.4455C32.5743 199.443 31.8924 198.913 31.8924 198.231V192.208C31.8924 191.829 31.703 191.45 31.3621 191.223C30.6802 190.806 30.5666 190.049 31.1348 189.594L31.3242 189.405C31.8545 188.874 32.8394 188.799 33.5213 189.215C34.6577 189.935 35.3395 190.996 35.3395 192.208V198.231C35.3016 198.913 34.6198 199.443 33.7485 199.443Z" fill="#626363"/>
<path d="M55.7962 207.322H55.4932C54.6219 207.322 53.9401 206.792 53.9401 206.11V194.216C53.9401 192.738 52.4249 191.602 50.5309 191.602H43.7124V206.11C43.7124 206.792 43.0306 207.322 42.1594 207.322H41.8563C40.9851 207.322 40.3032 206.792 40.3032 206.11V190.162C40.3032 189.481 40.9851 188.95 41.8563 188.95H50.5309C54.281 188.95 57.3493 191.299 57.3493 194.178V206.072C57.3493 206.792 56.6674 207.322 55.7962 207.322Z" fill="#626363"/>
<path d="M90.2297 207.322H89.9266C89.0933 207.322 88.3736 206.792 88.3736 206.11L88.4114 192.89C88.4114 192.17 87.6159 191.564 86.7068 191.564H79.0172V203.345C79.0172 205.504 76.7443 207.284 73.9033 207.284H73.7518C72.8806 207.284 72.1987 206.754 72.1987 206.072V205.845C72.1987 205.163 72.8806 204.633 73.7518 204.633H73.9033C74.8125 204.633 75.6079 204.027 75.6079 203.307V191.526H73.7518C72.8806 191.526 72.1987 190.996 72.1987 190.314V190.162C72.1987 189.481 72.8806 188.95 73.7518 188.95H86.6689C89.51 188.95 91.7828 190.693 91.7828 192.89V206.11C91.7828 206.792 91.1009 207.322 90.2297 207.322Z" fill="#626363"/>
<path d="M112.049 196.488C111.708 198.117 110.648 199.557 109.094 200.58L113.148 205.277C113.792 205.996 113.337 207.322 111.898 207.322H97.9198C97.0485 207.322 96.3667 206.792 96.3667 206.11V205.883C96.3667 205.201 97.0485 204.671 97.9198 204.671H108.602L96.6697 190.996C96.1773 190.428 96.2909 189.708 96.9728 189.329L97.2001 189.215C97.8819 188.799 98.9047 188.875 99.3971 189.443L107.2 198.382C107.996 197.814 108.564 197.095 108.716 196.299L110.117 189.973C110.269 189.291 111.102 188.875 111.935 188.988L112.238 189.026C113.072 189.14 113.64 189.746 113.489 190.428L112.049 196.488Z" fill="#626363"/>
<path d="M121.214 207.322H120.911C120.04 207.322 119.358 206.792 119.358 206.11V192.208C119.358 191.829 119.169 191.45 118.828 191.223C118.146 190.806 118.032 190.049 118.601 189.594L118.79 189.405C119.32 188.874 120.305 188.799 120.987 189.215C122.123 189.935 122.805 190.996 122.805 192.208V206.11C122.767 206.792 122.086 207.322 121.214 207.322Z" fill="#626363"/>
<path d="M144.51 207.322H129.32C128.448 207.322 127.767 206.792 127.767 206.11V205.883C127.767 205.201 128.448 204.671 129.32 204.671H139.244V192.89C139.244 192.17 138.525 191.564 137.54 191.564H129.32C128.448 191.564 127.767 191.034 127.767 190.352V190.162C127.767 189.481 128.448 188.95 129.32 188.95H137.54C140.381 188.95 142.654 190.693 142.654 192.89V204.671H144.51C145.381 204.671 146.063 205.201 146.063 205.883V206.11C146.101 206.792 145.419 207.322 144.51 207.322Z" fill="#626363"/>
<path d="M168.377 191.488L161.445 206.527C161.141 207.133 160.27 207.474 159.437 207.247L159.134 207.171C158.338 206.944 157.922 206.262 158.225 205.618L164.702 191.564H151.255C150.383 191.564 149.702 191.034 149.702 190.352C149.702 190.125 149.702 190.125 149.702 190.125C149.702 189.443 150.383 188.913 151.255 188.913H166.899C167.77 188.913 168.452 189.443 168.452 190.125V190.92C168.49 191.072 168.528 191.223 168.377 191.488ZM154.55 197.852C154.209 198.08 154.02 198.421 154.02 198.837V211.376C154.02 212.057 153.3 212.588 152.467 212.588H152.164C151.293 212.588 150.611 212.057 150.611 211.376V198.837C150.611 197.587 151.293 196.564 152.429 195.807C153.073 195.39 154.096 195.504 154.626 195.996L154.815 196.186C155.346 196.678 155.194 197.398 154.55 197.852Z" fill="#626363"/>
<path d="M188.073 207.322H180.952C180.08 207.322 179.398 206.792 179.398 206.11V205.882C179.398 205.201 180.08 204.67 180.952 204.67H186.217V191.564C184.02 191.564 182.808 191.564 182.808 191.564C180.648 191.564 178.679 192.89 178.073 194.859L174.436 206.489C174.133 207.095 173.262 207.436 172.429 207.208L172.125 207.132C171.33 206.905 170.913 206.223 171.216 205.579L174.739 194.367C174.929 193.761 175.573 192.7 175.573 192.7L173.186 191.223C172.504 190.768 172.391 190.011 172.959 189.556L173.148 189.367C173.679 188.836 174.663 188.761 175.345 189.177L177.58 190.617C179.058 189.556 180.838 188.95 182.846 188.95H188.111C188.982 188.95 189.664 189.48 189.664 190.162V206.11C189.626 206.792 188.944 207.322 188.073 207.322Z" fill="#626363"/>
</svg>
