<svg width="20" height="20" viewBox="0 0 20 20" fill="none" xmlns="http://www.w3.org/2000/svg">
<path d="M19.7111 18.2168L15.0273 13.2662C16.2316 11.8113 16.8914 9.98069 16.8914 8.07499C16.8914 3.62251 13.3269 0 8.94571 0C4.56452 0 1 3.62251 1 8.07499C1 12.5275 4.56452 16.15 8.94571 16.15C10.5905 16.15 12.1579 15.6458 13.4979 14.6888L18.2173 19.677C18.4146 19.8852 18.6799 20 18.9642 20C19.2333 20 19.4886 19.8957 19.6824 19.7061C20.0942 19.3034 20.1074 18.6357 19.7111 18.2168ZM8.94571 2.10652C12.1841 2.10652 14.8186 4.78391 14.8186 8.07499C14.8186 11.3661 12.1841 14.0435 8.94571 14.0435C5.70732 14.0435 3.07279 11.3661 3.07279 8.07499C3.07279 4.78391 5.70732 2.10652 8.94571 2.10652Z" fill="#454545"/>
</svg>
